<svg id="filled_outline" height="512" viewBox="0 0 512 512" width="512" xmlns="http://www.w3.org/2000/svg" data-name="filled outline"><path d="m128 112h-24l-8 8v8a16 16 0 0 0 16 16 16 16 0 0 0 16-16z" fill="#ffceb6"/><path d="m96 120v-16a16 16 0 0 1 16-16h12.6863a11.31369 11.31369 0 0 1 11.3137 11.3137 11.31372 11.31372 0 0 1 -3.31371 8l-4.68629 4.6863h-24z" fill="#979695"/><rect fill="#979695" height="400" rx="16" width="288" x="192" y="56"/><path d="m224 88h224v336h-224z" fill="#5F5F5F"/><path d="m192 176v64l-40-40v72h-104v-60l-1.07007-.8a37.331 37.331 0 0 1 22.40015-67.2h77.41992a31.99526 31.99526 0 0 1 22.62 9.37z" fill="#4caf50"/><path d="m120 176 13.279 39.836-42.866.924 13.587-40.76z" fill="#ef5e3b"/><path d="m104 176h16l8-16-16-16-16 16z" fill="#e04f2b"/><path d="m64 224 25.77778-25.77778 22.22222 17.77778 64-56h24v24a16 16 0 0 1 -16 16h-8l-25.03964 30.04757a49.8934 49.8934 0 0 1 -38.32918 17.95243 49.89341 49.89341 0 0 1 -29.93605-9.97868z" fill="#ffceb6"/><path d="m48 464v24h64v-8l-24-24z" fill="#e0edff"/><path d="m112 464v24h64v-8l-24-24z" fill="#c5dafa"/><path d="m304 56 8.84459-17.68918a25.88851 25.88851 0 0 1 23.15541-14.31082 25.88851 25.88851 0 0 1 23.15539 14.31082l8.84461 17.68918z" fill="#4caf50"/><path d="m416 56-24 48h-112l-24-48z" fill="#4caf50"/><path d="m48 464v-192h104v184l-40 8-8-152-16 144z" fill="#718799"/><path d="m400 200a64 64 0 1 1 -64-64 63.74276 63.74276 0 0 1 64 64z" fill="#a6cfff"/><path d="m384 224v18.34a64.02065 64.02065 0 0 1 -104-11.33v-7.01a15.99548 15.99548 0 0 1 16-16h72a15.99548 15.99548 0 0 1 16 16z" fill="#02c26a"/><path d="m344 192v36a12 12 0 1 1 -24 0v-36z" fill="#ffceb6"/><path d="m352 184h-24l-8 8v8a16 16 0 0 0 16 16 16 16 0 0 0 16-16z" fill="#ffceb6"/><path d="m320 192v-16a16 16 0 0 1 16-16h12.6863a11.31369 11.31369 0 0 1 11.3137 11.3137 11.31372 11.31372 0 0 1 -3.31371 8l-4.68629 4.6863h-24z" fill="#979695"/><path d="m136 115.31348 2.34326-2.34327a19.31354 19.31354 0 0 0 -13.65674-32.97021h-12.68652a24.02687 24.02687 0 0 0 -24 24v32h-18.6665a45.3302 45.3302 0 0 0 -29.3335 79.8927v272.1073a7.99977 7.99977 0 0 0 8 8h128a7.99977 7.99977 0 0 0 8-8v-8a7.99877 7.99877 0 0 0 -2.34326-5.65674l-21.65674-21.65674v-220.68652h-.25281l5.88147-7.05786 18.37134 18.37134v196.68652a24.02687 24.02687 0 0 0 24 24h256a24.02687 24.02687 0 0 0 24-24v-368a24.02687 24.02687 0 0 0 -24-24h-91.05591l-6.63354-13.2666a33.88786 33.88786 0 0 0 -60.6211 0l-6.63354 13.2666h-91.05591a24.02687 24.02687 0 0 0 -24 24v80h-4.68652l-4.28418-4.28418a39.73644 39.73644 0 0 0 -28.28418-11.71582h-12.12122a23.88532 23.88532 0 0 0 1.3761-8zm-24-19.31348h12.68652a3.31388 3.31388 0 0 1 2.34327 5.65674l-2.34327 2.34326h-20.68652a8.00917 8.00917 0 0 1 8-8zm-8 27.31348 3.31348-3.31348h12.68652v8a8.009 8.009 0 0 1 -7.99805 7.99988h-.0039a8.009 8.009 0 0 1 -7.99805-7.99988zm75.00586 44.68652h12.99414v16a8.00917 8.00917 0 0 1 -8 8h-8a7.99975 7.99975 0 0 0 -6.14551 2.87842l-25.04 30.04736a41.89336 41.89336 0 0 1 -57.31933 6.6958l-11.31616-8.48706 14.19238-14.19238 16.6311 13.30493a8.00031 8.00031 0 0 0 10.26563-.22656zm-59.50342 286.34106-7.51367-142.76147a8 8 0 0 0 -15.93994-.46289l-15.354 138.18579-24.69483 4.93897v-174.24146h88v169.44153zm-15.698 6.14991-7.42871-7.42871 4.77564-42.97974zm40.19556-196.49097h-88v-36l21.89551 16.42139a57.8694 57.8694 0 0 0 66.10449 2.3341zm-32.23-58.42871-7.25879-5.80713 5.25466-15.76416h4.46826l5.01025 15.03125zm3.28591-37.57129h-6.11182l-4.25757-8.515 7.31348-5.485 7.31348 5.485zm-45.72241-16h18.66674l-12.8 9.6001 9.5996 12.7998 6.8772-5.15771 3.68579 7.37158-4.1663 12.49853-14.199-11.35937-9.99512 12.49414 10.79834 8.63867-14.55148 14.55152-7.24927-5.43702v-.00024h-.00024l-4.26636-3.19971a29.33349 29.33349 0 0 1 17.6001-52.80029zm-13.3335 328v-9.44141l29.37061-5.87451 15.31539 15.31592zm64 0v-9.44141l29.37061-5.87451 15.31539 15.31592zm55.91357-267.3999 3.8335-4.6001h4.25293v12.68652zm96.93116-105.02246a7.99924 7.99924 0 0 0 7.15527 4.42236h112a7.99924 7.99924 0 0 0 7.15527-4.42236l5.78882-11.57764h35.05591v320h-208v-320h35.05591zm114.21093-11.57764h-102.11132l-16.00025-32h134.11182zm-67.05566-54.11133a17.88844 17.88844 0 0 1 32 0l3.05566 6.11133h-38.11132zm-120 30.11133a8.00917 8.00917 0 0 1 8-8h43.05591l8 16h-35.05591a7.99977 7.99977 0 0 0 -8 8v336a7.99977 7.99977 0 0 0 8 8h224a7.99977 7.99977 0 0 0 8-8v-336a7.99977 7.99977 0 0 0 -8-8h-35.05591l8-16h43.05591a8.00917 8.00917 0 0 1 8 8v368a8.00917 8.00917 0 0 1 -8 8h-256a8.00917 8.00917 0 0 1 -8-8v-238.13086a23.94343 23.94343 0 0 0 8-17.86914v-24a7.99977 7.99977 0 0 0 -8-8zm-36.28418 87.0293.58106.58105-31.99549 27.996-3.66418-10.99255 3.68579-7.37158 6.8772 5.15771 9.5996-12.7998-12.8-9.6001h10.74536a23.84457 23.84457 0 0 1 16.97066 7.02927z"/><path d="m336 272a72 72 0 1 0 -72-72 72.08124 72.08124 0 0 0 72 72zm0-16a56.01949 56.01949 0 0 1 -48-27.19043v-4.80957a8.00917 8.00917 0 0 1 8-8h16v12a20 20 0 0 0 40 0v-10.13062a24.20129 24.20129 0 0 0 1.86938-1.86938h14.13062a8.00917 8.00917 0 0 1 8 8v15.13831a55.82364 55.82364 0 0 1 -40 16.86169zm-8-33.3761a23.88532 23.88532 0 0 0 8 1.3761v4a4 4 0 0 1 -8 0zm23.02979-48.96716-2.34327 2.34326h-12.68652a7.99583 7.99583 0 0 0 -3.57764.84473l-4.42236 2.21118v-3.05591a8.00917 8.00917 0 0 1 8-8h12.68652a3.31388 3.31388 0 0 1 2.34327 5.65674zm-23.02979 23.2876 9.88867-4.94434h6.11133v8a8 8 0 0 1 -16 0zm8-52.94434a55.981 55.981 0 0 1 54.06616 70.56787 24.03411 24.03411 0 0 0 -22.06616-14.56787h-8v-12.68652l2.34326-2.34327a19.31354 19.31354 0 0 0 -13.65674-32.97021h-12.68652a24.02687 24.02687 0 0 0 -24 24v24h-16a23.8897 23.8897 0 0 0 -15.69165 5.86353 55.99521 55.99521 0 0 1 55.69165-61.86353z"/><path d="m256 336h40a7.99977 7.99977 0 0 0 8-8v-36.68652l5.65674-5.65674-11.31348-11.31348-32 32 11.31348 11.31348 10.34326-10.34326v12.68652h-24v-24h8v-16h-16a7.99977 7.99977 0 0 0 -8 8v40a7.99977 7.99977 0 0 0 8 8z"/><path d="m320 288h24v16h-24z"/><path d="m360 288h64v16h-64z"/><path d="m320 312h64v16h-64z"/><path d="m256 400h40a7.99977 7.99977 0 0 0 8-8v-36.68652l5.65674-5.65674-11.31348-11.31348-32 32 11.31348 11.31348 10.34326-10.34326v12.68652h-24v-24h8v-16h-16a7.99977 7.99977 0 0 0 -8 8v40a7.99977 7.99977 0 0 0 8 8z"/><path d="m320 352h32v16h-32z"/><path d="m368 352h56v16h-56z"/><path d="m360 376h24v16h-24z"/><path d="m320 376h24v16h-24z"/></svg>