<svg enable-background="new 0 0 24 24" height="512" viewBox="0 0 24 24" width="512" xmlns="http://www.w3.org/2000/svg"><g id="color"><g><path d="m22.585 21.197h-5.67c-.335 0-.608-.272-.608-.608v-5.63c0-.335.272-.608.608-.608h2.43c2.122 0 3.847 1.726 3.847 3.847v2.39c0 .337-.272.609-.607.609z" fill="#90a4ae"/></g><g><path d="m17.013 21.4h-14.1c-.373 0-.675-.302-.675-.675v-9.45c0-.373.302-.675.675-.675h13.425c.373 0 .675.302.675.675z" fill="#eceff1"/></g><g><path d="m7.5 23.323c-1.005 0-1.823-.818-1.823-1.823s.818-1.823 1.823-1.823 1.823.818 1.823 1.823-.818 1.823-1.823 1.823z" fill="#607d8b"/></g><g><path d="m19.5 23.323c-1.005 0-1.823-.818-1.823-1.823s.818-1.823 1.823-1.823 1.823.818 1.823 1.823-.818 1.823-1.823 1.823z" fill="#607d8b"/></g><g><path d="m6.5 12.35c-3.226 0-5.85-2.624-5.85-5.85s2.624-5.85 5.85-5.85 5.85 2.624 5.85 5.85-2.624 5.85-5.85 5.85z" fill="#4caf50"/></g></g><g id="reg"><g><path d="m6.5 13c-3.584 0-6.5-2.916-6.5-6.5s2.916-6.5 6.5-6.5 6.5 2.916 6.5 6.5-2.916 6.5-6.5 6.5zm0-11.5c-2.757 0-5 2.243-5 5s2.243 5 5 5 5-2.243 5-5-2.243-5-5-5z"/></g><g><path d="m5.5 9.25c-.199 0-.39-.079-.53-.22l-2-2c-.293-.293-.293-.768 0-1.061s.768-.293 1.061 0l1.433 1.433 2.972-3.396c.272-.312.747-.343 1.058-.071.312.273.344.747.071 1.058l-3.5 4c-.137.157-.333.25-.54.257-.008 0-.017 0-.025 0z"/></g><g><path d="m5.75 22h-3.5c-.414 0-.75-.336-.75-.75v-7.11c0-.414.336-.75.75-.75s.75.336.75.75v6.36h2.75c.414 0 .75.336.75.75s-.336.75-.75.75z"/></g><g><path d="m16.75 22h-7.52c-.414 0-.75-.336-.75-.75s.336-.75.75-.75h6.77v-9h-1.86c-.414 0-.75-.336-.75-.75s.336-.75.75-.75h2.61c.414 0 .75.336.75.75v10.5c0 .414-.336.75-.75.75z"/></g><g><path d="m23.25 22h-2.021c-.414 0-.75-.336-.75-.75s.336-.75.75-.75h1.271v-2.2c0-1.792-1.458-3.25-3.25-3.25h-1.75v5.45h.25c.414 0 .75.336.75.75s-.336.75-.75.75h-1c-.414 0-.75-.336-.75-.75v-6.95c0-.414.336-.75.75-.75h2.5c2.619 0 4.75 2.131 4.75 4.75v2.95c0 .414-.336.75-.75.75z"/></g><g><path d="m7.5 24c-1.378 0-2.5-1.122-2.5-2.5s1.122-2.5 2.5-2.5 2.5 1.122 2.5 2.5-1.122 2.5-2.5 2.5zm0-3.5c-.551 0-1 .449-1 1s.449 1 1 1 1-.449 1-1-.449-1-1-1z"/></g><g><path d="m19.5 24c-1.378 0-2.5-1.122-2.5-2.5s1.122-2.5 2.5-2.5 2.5 1.122 2.5 2.5-1.122 2.5-2.5 2.5zm0-3.5c-.551 0-1 .449-1 1s.449 1 1 1 1-.449 1-1-.449-1-1-1z"/></g></g></svg>