<svg height="512pt" viewBox="-6 0 511 512" width="512pt" xmlns="http://www.w3.org/2000/svg"><path d="m492.015625 249.484375c0 133.667969-108.359375 242.027344-242.027344 242.027344s-242.027343-108.359375-242.027343-242.027344 108.359374-242.027344 242.027343-242.027344 242.027344 108.359375 242.027344 242.027344zm0 0" fill="#ff8b00"/><path d="m249.988281 7.457031v484.054688c133.667969 0 242.027344-108.359375 242.027344-242.027344 0-133.671875-108.359375-242.027344-242.027344-242.027344zm0 0" fill="#ed500a"/><path d="m45.546875 119.902344c-23.796875 37.464844-37.585937 81.910156-37.585937 129.582031 0 133.667969 108.355468 242.027344 242.027343 242.027344 86.105469 0 161.699219-44.972657 204.601563-112.703125zm0 0" fill="#727070"/><path d="m250.050781 249.34375-204.503906-129.441406c-23.796875 37.464844-37.585937 81.910156-37.585937 129.582031 0 49.515625 14.878906 95.550781 40.398437 133.898437zm0 0" fill="#ffa300"/><path d="m45.546875 119.902344c-23.796875 37.464844-37.585937 81.910156-37.585937 129.582031 0 17.496094 1.871093 34.550781 5.398437 50.992187l236.738281-51.105468zm0 0" fill="#ffe3dc"/><path d="m45.546875 119.902344c-23.796875 37.464844-37.585937 81.910156-37.585937 129.582031h242.3125zm0 0" fill="#ffc50d"/><path d="m272.84375 8.539062c101.433594 28.828126 175.722656 122.152344 175.722656 232.828126 0 118.835937-85.648437 217.660156-198.578125 238.132812v12.011719c133.667969 0 242.027344-108.359375 242.027344-242.027344 0-125.957031-96.222656-229.425781-219.171875-240.945313zm0 0" fill="#db3317"/><path d="m419.445312 356.5625c-40.957031 75.539062-120.941406 126.835938-212.90625 126.835938-7.714843 0-15.332031-.378907-22.859374-1.082032 21.070312 5.988282 43.3125 9.195313 66.304687 9.195313 86.109375 0 161.703125-44.972657 204.605469-112.703125zm0 0" fill="#5c5c5c"/><g fill="#ffc50d"><path d="m273.382812 504.542969h-78.320312c-4.832031 0-8.746094-3.914063-8.746094-8.746094v-25.632813h95.8125v25.632813c0 4.832031-3.917968 8.746094-8.746094 8.746094zm0 0"/><path d="m186.3125 435.785156h95.816406v34.378906h-95.816406zm0 0"/><path d="m186.3125 401.402344h95.816406v34.382812h-95.816406zm0 0"/><path d="m282.128906 401.402344h-95.816406v-25.632813c0-4.832031 3.917969-8.746093 8.75-8.746093h78.316406c4.832032 0 8.75 3.914062 8.75 8.746093zm0 0"/></g><path d="m256.203125 470.164062v14.652344c0 4.980469-4.039063 9.019532-9.019531 9.019532h-60.871094v.847656c0 5.445312 4.414062 9.863281 9.863281 9.863281h76.09375c5.445313 0 9.859375-4.414063 9.859375-9.863281v-24.519532zm0 0" fill="#ffa300"/><path d="m256.203125 435.785156v14.652344c0 4.980469-4.039063 9.019531-9.019531 9.019531h-60.871094v10.707031h95.816406v-34.378906zm0 0" fill="#ffa300"/><path d="m256.203125 401.402344v14.65625c0 4.980468-4.039063 9.015625-9.019531 9.015625h-60.871094v10.710937h95.816406v-34.378906h-25.925781zm0 0" fill="#ffa300"/><path d="m465.007812 504.542969h-78.320312c-4.832031 0-8.746094-3.914063-8.746094-8.746094v-25.632813h95.8125v25.632813c0 4.832031-3.914062 8.746094-8.746094 8.746094zm0 0" fill="#ffc50d"/><path d="m377.941406 435.785156h95.8125v34.378906h-95.8125zm0 0" fill="#ffc50d"/><path d="m447.828125 470.164062v14.652344c0 4.980469-4.035156 9.019532-9.019531 9.019532h-60.867188v.847656c0 5.445312 4.414063 9.863281 9.859375 9.863281h76.09375c5.445313 0 9.859375-4.414063 9.859375-9.863281v-24.519532zm0 0" fill="#ffa300"/><path d="m447.828125 435.785156v14.652344c0 4.980469-4.035156 9.019531-9.019531 9.019531h-60.867188v10.707031h95.8125v-34.378906zm0 0" fill="#ffa300"/><path d="m272.269531 367.023438h-16.066406v14.65625c0 4.976562-4.039063 9.015624-9.019531 9.015624h-60.871094v10.710938h95.816406v-24.519531c0-5.449219-4.414062-9.863281-9.859375-9.863281zm0 0" fill="#ffa300"/><path d="m473.753906 435.785156h-95.8125v-25.636718c0-4.828126 3.914063-8.746094 8.746094-8.746094h78.320312c4.832032 0 8.746094 3.917968 8.746094 8.746094zm0 0" fill="#ffc50d"/><path d="m463.894531 401.402344h-16.066406v14.65625c0 4.980468-4.035156 9.015625-9.019531 9.015625h-60.867188v10.710937h95.8125v-24.519531c0-5.449219-4.414062-9.863281-9.859375-9.863281zm0 0" fill="#ffa300"/><path d="m369.195312 504.542969h-78.320312c-4.832031 0-8.746094-3.914063-8.746094-8.746094v-25.632813h95.8125v25.632813c0 4.832031-3.917968 8.746094-8.746094 8.746094zm0 0" fill="#ffc50d"/><path d="m282.128906 435.785156h95.8125v34.378906h-95.8125zm0 0" fill="#ffc50d"/><path d="m282.128906 401.402344h95.8125v34.382812h-95.8125zm0 0" fill="#ffc50d"/><path d="m352.015625 470.164062v14.652344c0 4.980469-4.039063 9.019532-9.019531 9.019532h-60.867188v.847656c0 5.445312 4.414063 9.863281 9.859375 9.863281h76.09375c5.445313 0 9.859375-4.414063 9.859375-9.863281v-24.519532zm0 0" fill="#ffa300"/><path d="m352.015625 435.785156v14.652344c0 4.980469-4.039063 9.019531-9.019531 9.019531h-60.867188v10.707031h95.8125v-34.378906zm0 0" fill="#ffa300"/><path d="m352.015625 401.402344v14.65625c0 4.980468-4.039063 9.015625-9.019531 9.015625h-60.867188v10.710937h95.8125v-34.378906h-25.925781zm0 0" fill="#ffa300"/><path d="m282.128906 367.023438h95.8125v34.378906h-95.8125zm0 0" fill="#ffc50d"/><path d="m352.015625 367.023438v14.65625c0 4.976562-4.039063 9.015624-9.019531 9.015624h-60.867188v10.710938h95.8125v-34.382812zm0 0" fill="#ffa300"/><path d="m282.128906 332.644531h95.8125v34.378907h-95.8125zm0 0" fill="#ffc50d"/><path d="m377.941406 332.644531h-95.8125v-25.632812c0-4.832031 3.914063-8.75 8.746094-8.75h78.320312c4.828126 0 8.746094 3.917969 8.746094 8.75zm0 0" fill="#ffc50d"/><path d="m352.015625 332.644531v14.652344c0 4.980469-4.039063 9.019531-9.019531 9.019531h-60.867188v10.707032h95.8125v-34.378907zm0 0" fill="#ffa300"/><path d="m368.082031 298.261719h-16.066406v14.65625c0 4.980469-4.039063 9.015625-9.019531 9.015625h-60.867188v10.710937h95.8125v-24.519531c0-5.445312-4.414062-9.863281-9.859375-9.863281zm0 0" fill="#ffa300"/><path d="m465.058594 393.949219h-11.667969c-3.222656 4.539062 5.886719-8.089844 7.777344-11.648438 24.84375-39.558593 38.300781-85.773437 38.300781-132.816406 0-66.640625-25.949219-129.289063-73.070312-176.414063-47.121094-47.121093-109.769532-73.070312-176.410157-73.070312-54.582031 0-106.421875 17.304688-149.90625 50.042969-3.292969 2.476562-3.953125 7.148437-1.476562 10.441406 2.480469 3.289063 7.152343 3.949219 10.445312 1.472656 38.894531-29.28125 84.902344-45.417969 133.480469-46.917969v220.722657l-186.617188-118.125c8.257813-12.101563 17.699219-23.523438 28.292969-34.105469 2.914063-2.910156 2.914063-7.632812.003907-10.546875-2.910157-2.910156-7.628907-2.917969-10.542969-.003906-41.8125 41.765625-66.957031 95.753906-72.144531 153.910156-1.238282 13.667969-1.355469 27.457031-.335938 41.144531 3.539062 48.753906 21.023438 94.640625 51.125 133.675782 31.921875 41.394531 76.730469 72.148437 126.546875 86.960937v7.175781c0 8.90625 7.246094 16.152344 16.152344 16.152344h78.421875c3.199218 0 6.179687-.949219 8.695312-2.5625 2.511719 1.613281 5.492188 2.5625 8.695313 2.5625h78.417969c3.203124 0 6.183593-.949219 8.699218-2.5625 2.511719 1.613281 5.492188 2.5625 8.695313 2.5625h78.421875c8.90625 0 16.148437-7.246094 16.148437-16.152344v-85.75c.003907-8.90625-7.242187-16.148437-16.148437-16.148437zm-239.199219 0h-32.089844v-18.230469c0-.683594.558594-1.238281 1.242188-1.238281h78.421875c.683594 0 1.238281.554687 1.238281 1.238281v18.230469h-16.996094c-4.117187 0-7.457031 3.335937-7.457031 7.453125 0 4.121094 3.339844 7.457031 7.457031 7.457031h16.996094v19.46875h-80.902344v-19.46875h32.089844c4.121094 0 7.457031-3.335937 7.457031-7.457031 0-4.117188-3.335937-7.453125-7.457031-7.453125zm63.722656-18.230469v-1.238281h80.902344v19.464843h-80.902344zm80.902344-16.152344h-80.902344v-19.464844h80.902344zm-80.902344 49.292969h80.902344v19.46875h-80.902344zm80.902344-83.671875h-80.902344v-18.226562c0-.6875.558594-1.242188 1.242188-1.242188h78.417969c.683593 0 1.242187.554688 1.242187 1.242188zm-176.714844 118.050781h80.902344v19.46875h-80.902344zm95.8125 0h80.902344v19.46875h-80.902344zm95.816407 0h80.898437v19.46875h-80.898437zm80.898437-33.140625v18.230469h-80.898437v-18.230469c0-.683594.554687-1.238281 1.238281-1.238281h78.421875c.683594 0 1.238281.554687 1.238281 1.238281zm-79.660156-16.148437c-.417969 0-.828125.03125-1.238281.0625v-50.175781l58.792968 37.214843c-2.976562 4.398438-6.117187 8.699219-9.398437 12.898438zm-370.753907-129.691407c-.15625-2.441406-.257812-4.875-.335937-7.316406h164.160156l-160.457031 34.632813c-1.644531-8.964844-2.78125-18.082031-3.367188-27.316407zm6.519532 41.890626 190.605468-41.140626-162.34375 107.890626c-12.703124-20.496094-22.3125-42.988282-28.261718-66.75zm25.546875-175.902344 176.601562 111.78125h-209.003906c.132813-4.371094.390625-8.738282.769531-13.097656 3.042969-34.875 13.808594-68.539063 31.632813-98.683594zm10.96875 255.074218 191.230469-127.089843 29.558593 18.707031c1.238281.785156 2.617188 1.15625 3.980469 1.15625 2.472656 0 4.886719-1.226562 6.308594-3.46875 2.203125-3.480469 1.167968-8.085938-2.3125-10.285156l-30.238282-19.140625v-230.15625c125.902344 3.953125 227.113282 107.59375 227.113282 234.441406 0 41.90625-11.351563 83.109375-32.40625 118.957031l-66.753906-42.253906v-19.226562c0-8.910157-7.246094-16.152344-16.152344-16.152344h-78.421875c-8.90625 0-16.152344 7.246094-16.152344 16.152344v52.667968c-.410156-.03125-.820313-.0625-1.238281-.0625h-78.421875c-8.90625 0-16.152344 7.246094-16.152344 16.152344v97.347656c-49.449219-15.710937-91.074219-47.125-119.941406-87.746094zm214.515625 111.765626h-78.421875c-.683594 0-1.242188-.554688-1.242188-1.238282v-18.226562h80.902344v18.226562c0 .683594-.558594 1.238282-1.238281 1.238282zm95.808594 0h-78.417969c-.683594 0-1.242188-.554688-1.242188-1.238282v-18.226562h80.902344v18.226562c0 .683594-.554687 1.238282-1.242187 1.238282zm97.054687-1.238282c0 .683594-.554687 1.242188-1.238281 1.242188h-78.421875c-.683594 0-1.238281-.558594-1.238281-1.242188v-18.226562h80.898437zm0 0"/></svg>