<svg height="512pt" viewBox="-73 0 512 512" width="512pt" xmlns="http://www.w3.org/2000/svg"><path d="m361.601562 420.601562-7.402343-132.402343c-.597657-10.398438-7.800781-19.199219-18-21.800781l-46.800781-11.796876-28.199219-13.800781-9.398438 27.398438c-.601562 1.601562-2 2.601562-3.800781 2.601562h-29.199219c-1.601562 0-3.199219-1-3.800781-2.601562l-9.398438-27.398438-28.203124 13.800781-46.796876 11.796876c-10.203124 2.601562-17.402343 11.402343-18 21.800781l-1.203124 23c54 4.402343 94.203124 51.800781 89.601562 105.800781-.601562 6.800781-1.800781 13.398438-3.800781 20h148.800781c8.601562 0 15.601562-7 15.601562-15.601562 0-.199219 0-.398438 0-.796876zm0 0" fill="#858585"/><path d="m168.398438 118.398438c1.203124 0 2.601562.203124 3.800781.402343v-2.800781c0-1.800781 1.402343-3.199219 3.199219-3.199219h.601562c11 2.199219 43.398438 6.199219 65.398438-21.601562 1.203124-1.398438 3.203124-1.597657 4.601562-.597657 0 0 .199219.199219.199219.199219 5 5 18.199219 15 43.402343 15.597657 1.796876 0 3 1.402343 3.199219 3.203124v1 8c7.800781-1.203124 15.597657 1.199219 21.398438 6.796876v-45.199219c0-19-15.398438-34.398438-34.398438-34.398438-6.199219 0-12.199219 1.800781-17.601562 5-6.199219-10.402343-17.398438-16.800781-29.597657-16.800781h-17.601562c-34.398438.199219-62.199219 28-62.199219 62.199219v28c4.398438-3.800781 9.800781-5.800781 15.597657-5.800781zm0 0" fill="#6d6c6b"/><path d="m296.800781 118.398438c-1.402343 0-2.601562.203124-4 .402343 0 1.398438.199219 2.800781.199219 4v41.597657c0 1.402343 0 2.800781-.199219 4 13.800781 2.203124 26.597657-7 28.800781-20.796876 2.199219-13.800781-7-26.601562-20.800781-28.800781-1.402343-.199219-2.601562-.402343-4-.402343zm0 0" fill="#f9d0b4"/><path d="m172.199219 164.398438v-41.597657c0-1.402343 0-2.800781.199219-4-13.796876-2.402343-26.796876 7-29 20.597657-2.199219 13.601562 7 26.800781 20.601562 29 2.800781.402343 5.601562.402343 8.398438 0 0-1.199219-.199219-2.597657-.199219-4zm0 0" fill="#f9d0b4"/><path d="m241.601562 91.199219c-22 27.800781-54.601562 23.800781-65.402343 21.601562-1.800781-.402343-3.398438.800781-3.800781 2.398438v.601562 48.597657c0 33.203124 27 60.203124 60.402343 60.402343 33.199219 0 60.199219-27 60.398438-60.402343v-53.597657c0-.402343 0-.601562 0-1 0-1.800781-1.398438-3.199219-3.199219-3.199219-25-.800781-38.199219-10.601562-43.398438-15.601562-1.203124-1.199219-3.402343-1.199219-4.601562 0-.199219 0-.398438.199219-.398438.199219zm0 0" fill="#f9d0b4"/><path d="m232.601562 224.800781c-9.402343 0-18.601562-2.199219-27-6.402343v22.402343l9.398438 27.199219c.601562 1.601562 2 2.601562 3.800781 2.601562h29c1.597657 0 3.199219-1 3.800781-2.601562l9.398438-27.398438v-23.203124c-8.601562 4.800781-18.398438 7.402343-28.398438 7.402343zm0 0" fill="#f9d0b4"/><path d="m201.398438 408.800781c0 54.234375-43.964844 98.199219-98.199219 98.199219s-98.199219-43.964844-98.199219-98.199219 43.964844-98.199219 98.199219-98.199219 98.199219 43.964844 98.199219 98.199219zm0 0" fill="#4caf50"/><path d="m121 436.199219 13-7.398438c2.199219-1.199219 5-.601562 6.199219 1.597657l16.199219 28.203124c1.203124 2.199219.601562 5-1.597657 6.199219l-13 7.398438c-2.199219 1.199219-5 .601562-6.199219-1.597657l-16.203124-28c-1.398438-2.203124-.597657-5 1.601562-6.402343zm0 0" fill="#e9e9ea"/><path d="m68.601562 345.601562 13-7.402343c2.199219-1.199219 5-.597657 6.199219 1.601562l16.199219 28.199219c1.199219 2.199219.601562 5-1.601562 6.199219l-13 7.402343c-2.199219 1.199219-5 .597657-6.199219-1.601562l-16.199219-28.199219c-1.199219-2.199219-.601562-5 1.601562-6.199219zm0 0" fill="#e9e9ea"/><path d="m123.800781 450.199219-7.800781 4.402343c-3.800781 2.199219-8.601562.796876-10.800781-3l-37-64.203124c-2.199219-3.796876-.800781-8.597657 3-10.796876l7.800781-4.402343-11.398438-19.800781c-20.203124 13.601562-26.402343 40.402343-14.402343 61.402343l22 38c12.199219 21 38.601562 29 60.402343 18.199219zm0 0" fill="#e9e9ea"/>


<g fill="#231f20"><path d="m296.800781 173.800781c-1.601562 0-3.199219-.199219-4.800781-.402343-2.601562-.398438-4.398438-2.597657-4.199219-5.199219 0-1.398438.199219-2.597657.199219-3.800781v-41.597657c0-1.199219 0-2.402343-.199219-3.800781-.199219-2.601562 1.597657-4.800781 4.199219-5.199219 16.398438-2.601562 32 8.597657 34.601562 25 2.597657 16.398438-8.601562 32-25 34.597657-1.601562.402343-3.203124.402343-4.800781.402343zm1.199219-50.199219v40.398438c11.199219-.601562 19.601562-10.199219 19-21.199219-.601562-10.601562-8.800781-18.800781-19-19.199219zm0 0"/><path d="m168.398438 173.800781c-16.597657 0-30.199219-13.402343-30.199219-30.199219 0-16.601562 13.402343-30.203124 30.199219-30.203124 1.601562 0 3.203124.203124 4.800781.402343 2.601562.398438 4.402343 2.597657 4.199219 5.199219 0 1.398438-.199219 2.601562-.199219 3.800781v41.597657c0 1 0 2.203124.199219 3.800781.203124 2.601562-1.597657 4.800781-4.199219 5.199219-1.597657.402343-3.199219.402343-4.800781.402343zm-1.199219-50.199219c-11.199219.597657-19.597657 10.199219-19 21.199219.601562 10.199219 8.800781 18.398438 19 19zm0 0"/><path d="m232.601562 229.800781c-36 0-65.203124-29.199219-65.402343-65.402343v-48.398438c0-4.601562 3.601562-8.199219 8.199219-8.199219.601562 0 1.203124 0 1.800781.199219 11.601562 2.398438 40.601562 5.398438 60.601562-19.800781 2.800781-3.597657 8-4.199219 11.597657-1.398438.203124.199219.402343.398438.601562.597657 4.199219 4 16.199219 13.601562 40 14.203124 4.398438.199219 7.800781 3.597657 8 8v54.796876c-.199219 36.203124-29.398438 65.402343-65.398438 65.402343zm-55.402343-111.800781v46.398438c0 30.601562 24.800781 55.402343 55.402343 55.402343 30.597657 0 55.199219-24.800781 55.398438-55.402343v-52.796876c-23.398438-1-37-9.800781-43.601562-15.601562-22.597657 26.800781-54.796876 24.199219-67.199219 22zm64.402343-26.800781"/><path d="m314.199219 130.601562c-1.199219 0-2.597657-.601562-3.398438-1.402343-3.800781-3.597657-8.800781-5.597657-14-5.597657-1 0-2 0-3.199219.199219-2.800781.398438-5.203124-1.402343-5.800781-4.199219 0-.203124 0-.601562 0-.800781v-7.199219c-23.402343-1-37-9.800781-43.601562-15.601562-22.597657 26.800781-54.800781 24.398438-67 22.199219v.800781c0 2.800781-2.199219 5-5 5-.199219 0-.597657 0-.800781 0-1-.199219-2-.199219-3.199219-.199219-4.597657 0-9 1.597657-12.597657 4.398438-2.203124 1.800781-5.402343 1.402343-7-.800781-.800781-.796876-1-2-1-3.199219v-28.199219c0-37.199219 30.199219-67.199219 67.199219-67.199219h17.597657c12.203124 0 23.800781 5.800781 31.203124 15.398438 5-2.199219 10.398438-3.398438 16-3.398438 21.796876 0 39.398438 17.597657 39.398438 39.398438v45.199219c.199219 3-2 5.203124-4.800781 5.203124zm-16.199219-17.203124c4 .203124 7.800781 1 11.398438 2.601562v-36c0-16.199219-13-29.398438-29.199219-29.398438-5.398438 0-10.597657 1.398438-15.199219 4.199219-2.398438 1.398438-5.398438.597657-6.800781-1.800781-5.398438-8.800781-14.800781-14.398438-25.199219-14.398438h-17.601562c-31.597657 0-57.199219 25.597657-57.199219 57.199219v19.398438c3.199219-1.199219 6.601562-1.800781 10-2 1.199219-4 5.402343-6.398438 9.601562-5.597657 11.597657 2.398438 40.597657 5.398438 60.597657-19.800781 2.800781-3.601562 8-4.199219 11.601562-1.402343.199219.203124.398438.402343.601562.601562 4.199219 4 16.199219 13.601562 40 14.199219 4.398438.199219 7.796876 3.601562 8 8zm0 0"/><path d="m233.398438 308.800781c-1.398438 0-2.597657-.601562-3.597657-1.402343-.199219-.199219-.402343-.398438-.601562-.796876-.398438-.601562-.597657-1.203124-.800781-1.800781 0-.402343-.199219-.601562-.199219-1 0-1.402343.601562-2.601562 1.402343-3.601562.199219-.199219.398438-.398438.796876-.597657.203124-.203124.601562-.402343.800781-.402343.402343-.199219.601562-.199219 1-.199219.601562-.199219 1.199219-.199219 2 0 .402343 0 .601562.199219 1 .199219.199219.199219.601562.199219.800781.402343.199219.199219.601562.398438.800781.597657s.398438.402343.597657.800781c.203124.199219.402343.601562.402343.800781.199219.199219.199219.597657.199219 1 0 .398438 0 .597657.199219 1 0 .398438 0 .597657-.199219 1 0 .398438-.199219.597657-.199219 1-.199219.199219-.199219.597657-.402343.800781-.199219.199219-.398438.597657-.597657.796876-.199219.203124-.402343.402343-.800781.601562-.199219.199219-.601562.398438-.800781.398438-.398438.203124-.597657.203124-1 .203124 0 .199219-.398438.199219-.800781.199219zm0 0"/><path d="m233.398438 341c-.398438 0-.597657 0-1-.199219-.398438 0-.597657-.199219-1-.199219-.199219-.203124-.597657-.203124-.796876-.402343-.203124-.199219-.601562-.398438-.800781-.597657-1-1-1.402343-2.203124-1.402343-3.601562 0-.398438 0-.601562.203124-1 0-.398438.199219-.601562.199219-1 .199219-.398438.199219-.601562.398438-.800781s.402343-.597657.601562-.800781c1.398438-1.398438 3.597657-1.796876 5.398438-1 .402343.203124.601562.203124.800781.402343s.601562.398438.800781.597657c.199219.203124.398438.402343.597657.800781.203124.199219.402343.601562.402343.800781.199219.398438.199219.601562.199219 1s0 .601562.199219 1c0 1.398438-.597657 2.601562-1.398438 3.601562-.199219.199219-.402343.398438-.800781.597657-.199219.199219-.601562.402343-.800781.402343-.398438.199219-.597657.199219-1 .199219 0 .199219-.398438.199219-.800781.199219zm0 0"/><path d="m233.398438 373.199219c-.398438 0-.597657 0-1-.199219-.398438 0-.597657-.199219-1-.199219-.398438-.199219-.597657-.199219-.796876-.402343-.203124-.199219-.601562-.398438-.800781-.597657s-.402343-.402343-.601562-.800781c-.199219-.199219-.398438-.601562-.398438-.800781-.199219-.398438-.199219-.597657-.199219-1 0-.398438-.203124-.597657-.203124-1 0-.398438 0-.597657.203124-1 0-.398438.199219-.597657.199219-1 .199219-.398438.199219-.597657.398438-.800781.199219-.199219.402343-.597657.601562-.796876.199219-.203124.398438-.402343.800781-.601562.199219-.199219.597657-.398438.796876-.398438 1.800781-.800781 4-.402343 5.402343 1.199219.199219.199219.398438.398438.597657.800781.203124.199219.402343.597657.402343.796876.199219.203124.199219.601562.199219 1 0 .402343 0 .601562.199219 1 0 .402343 0 .601562-.199219 1 0 .402343-.199219.601562-.199219 1-.199219.203124-.199219.601562-.402343.800781-.199219.199219-.398438.601562-.597657.800781-.800781.800781-2 1.199219-3.402343 1.199219zm0 0"/><path d="m233.398438 405.601562c-.398438 0-.597657 0-1-.203124-.398438 0-.597657-.199219-1-.199219-.199219-.199219-.597657-.199219-.796876-.398438-.203124-.199219-.601562-.402343-.800781-.601562s-.402343-.398438-.601562-.800781c-.199219-.199219-.398438-.597657-.398438-.796876-.199219-.402343-.199219-.601562-.199219-1-.203124-.601562-.203124-1.402343 0-2 .199219-.601562.398438-1.203124.796876-1.800781.203124-.199219.402343-.601562.601562-.800781s.398438-.398438.800781-.601562c.199219-.199219.597657-.398438.800781-.398438 1.796876-.800781 4-.398438 5.398438 1 .199219.199219.398438.398438.601562.800781.199219.199219.398438.597657.398438.800781.199219.398438.199219.597657.199219 1 .199219.597657.199219 1.398438 0 2 0 .398438-.199219.597657-.199219 1-.199219.199219-.199219.597657-.398438.796876-.203124.203124-.402343.601562-.601562.800781s-.398438.402343-.800781.601562c-.199219.199219-.597657.398438-.800781.398438-.398438.199219-.597657.199219-1 .199219-.199219 0-.597657.203124-1 .203124zm0 0"/><path d="m304 442c-2.800781 0-5-2.199219-5-5v-91c0-2.800781 2.199219-5 5-5s5 2.199219 5 5v91c0 2.800781-2.199219 5-5 5zm0 0"/><path d="m248 275.601562h-29c-3.800781 0-7.199219-2.402343-8.398438-6l-9.402343-27.402343c-.199219-.597657-.199219-1-.199219-1.597657v-22.402343c0-2.800781 2.199219-5 5-5 .800781 0 1.601562.199219 2.199219.601562 7.601562 3.800781 16 5.800781 24.601562 5.800781 9.199219 0 18.199219-2.402343 26.199219-6.601562 2.398438-1.398438 5.398438-.398438 6.800781 2 .398438.800781.597657 1.601562.597657 2.398438v23.203124c0 .597657 0 1.199219-.199219 1.597657l-9.398438 27.402343c-1.601562 3.597657-5 6-8.800781 6zm-28.398438-10h27.597657l9-25.800781v-14.601562c-7.597657 3-15.597657 4.402343-23.597657 4.402343-7.402343 0-14.800781-1.203124-22-3.800781v13.800781zm0 0"/><path d="m139.601562 478c-.800781 0-1.601562-.199219-2.402343-.398438-2.398438-.601562-4.597657-2.203124-5.800781-4.402343l-16.199219-28.199219c-2.597657-4.601562-1-10.398438 3.601562-13.199219l13-7.402343c4.597657-2.597657 10.398438-1 13.199219 3.601562l16.199219 28.199219c2.601562 4.601562 1 10.402343-3.597657 13.199219l-13 7.402343c-1.601562.800781-3.402343 1.199219-5 1.199219zm-15.601562-37.601562 15.800781 27.402343 12.199219-7-15.800781-27.402343zm0 0"/><path d="m87.199219 387.199219c-3.398438 0-6.597657-1.800781-8.398438-4.800781l-16.199219-28.199219c-2.601562-4.597657-1-10.398438 3.597657-13.199219l13-7.398438c4.601562-2.601562 10.402343-1 13.199219 3.597657l16.203124 28.199219c2.597657 4.601562 1 10.402343-3.601562 13.203124l-13 7.398438c-1.398438.800781-3.199219 1.199219-4.800781 1.199219zm-15.597657-37.597657 15.796876 27.398438 12.203124-7-15.800781-27.398438zm28.199219 20.796876"/><path d="m115 479.800781c-18.199219 0-35.199219-9.800781-44.398438-25.601562l-22-38c-13.402343-23.398438-6.402343-53.199219 16-68 2.199219-1.597657 5.398438-1 7 1.402343 0 0 .199219.199219.199219.199219l11.398438 19.800781c1.402343 2.398438.601562 5.398438-1.800781 6.796876l-7.796876 4.402343c-1.402343.800781-1.800781 2.597657-1 4l37 64.199219c.796876 1.398438 2.597657 1.800781 4 1l7.796876-4c2.402343-1.398438 5.402343-.601562 6.800781 1.800781l11.402343 19.800781c1.398438 2.398438.597657 5.398438-1.800781 6.796876 0 0-.199219.203124-.199219.203124-7.203124 3.398438-14.800781 5.199219-22.601562 5.199219zm-49.199219-120c-14.800781 13-18.402343 34.398438-8.601562 51.597657l22 38c9.800781 17 30.402343 24.601562 48.800781 18.402343l-6.199219-10.601562-3.402343 2c-6.199219 3.601562-14.199219 1.402343-17.796876-4.800781l-36.800781-64.398438c-3.601562-6.199219-1.402343-14.199219 4.800781-17.800781l3.398438-2zm0 0"/><path d="m103.199219 512c-57 0-103.199219-46.199219-103.199219-103.199219s46.199219-103.199219 103.199219-103.199219 103.199219 46.199219 103.199219 103.199219-46.199219 103.199219-103.199219 103.199219zm0-196.199219c-51.398438 0-93.199219 41.597657-93.199219 93.199219s41.800781 93 93.199219 93c51.402343 0 93.199219-41.601562 93.199219-93.199219 0-51.402343-41.796876-93-93.199219-93zm0 0"/><path d="m346.199219 442h-148.800781c-2.796876 0-5-2.199219-5-5 0-.398438 0-1 .203124-1.398438 14.796876-49.203124-13.203124-101.203124-62.601562-115.800781-6.199219-1.800781-12.601562-3-19-3.601562-2.800781-.199219-4.800781-2.597657-4.601562-5.199219l1.203124-23c.597657-12.601562 9.398438-23.199219 21.796876-26.398438l46.402343-11.601562 27.800781-13.601562c2.398438-1.199219 5.398438-.199219 6.597657 2.203124 0 .199219.199219.398438.199219.597657l9.203124 26.601562h27.597657l9.199219-26.601562c1-2.597657 3.800781-4 6.402343-3 .199219 0 .398438.199219.597657.199219l27.800781 13.601562 46.402343 11.601562c12.199219 3 21 13.796876 21.796876 26.398438l7.402343 132.398438c.597657 11.402343-8 21-19.402343 21.601562-.597657 0-.796876 0-1.199219 0zm-142.398438-10h142.398438c5.800781 0 10.601562-4.800781 10.601562-10.601562 0-.199219 0-.398438 0-.597657l-7.402343-132.402343c-.398438-8.199219-6.199219-15.199219-14.199219-17.199219l-46.800781-11.800781c-.398438 0-.597657-.199219-1-.398438l-23.199219-11.398438-7.597657 22c-1.203124 3.597657-4.601562 6-8.402343 6h-29c-3.800781 0-7.199219-2.402343-8.398438-6l-7.601562-22-23.199219 11.398438c-.398438.199219-.601562.199219-1 .398438l-46.800781 11.800781c-8 2-13.800781 9-14.199219 17.199219l-1 18.203124c56.398438 7.398438 96.199219 59.199219 88.800781 115.597657-.800781 3.402343-1.402343 6.601562-2 9.800781zm0 0"/></g></svg>