<svg id="Capa_1" enable-background="new 0 0 512 512" height="512" viewBox="0 0 512 512" width="512" xmlns="http://www.w3.org/2000/svg"><g><g><path d="m481.095 450.189h-450.19v-295.386c0-18.051 14.633-32.684 32.684-32.684h384.82c18.051 0 32.684 14.633 32.684 32.684v295.386z" fill="#555555"/><path d="m448.41 122.118h-30c18.051 0 32.684 14.633 32.684 32.684v295.387h30v-295.387c0-18.051-14.633-32.684-32.684-32.684z" fill="#5A5A5A"/><path d="m61.811 412.776v-252.614c0-2.729 2.212-4.94 4.94-4.94h378.498c2.728 0 4.94 2.212 4.94 4.94v252.614c0 2.728-2.212 4.94-4.94 4.94h-378.498c-2.728 0-4.94-2.212-4.94-4.94z" fill="#67696B"/></g><path d="m481.095 512h-450.19c-17.068 0-30.905-13.837-30.905-30.905v-22.664c0-4.552 3.69-8.241 8.241-8.241h495.517c4.552 0 8.241 3.69 8.241 8.241v22.664c.001 17.068-13.836 30.905-30.904 30.905z" fill="#616061"/><path d="m503.759 450.189h-30c4.552 0 8.241 3.69 8.241 8.241v22.664c0 17.069-13.837 30.906-30.906 30.906h30c17.069 0 30.906-13.837 30.906-30.906v-22.664c0-4.551-3.69-8.241-8.241-8.241z" fill="#666466"/><path d="m290.701 481.095h-69.402c-5.073 0-9.71-2.866-11.978-7.403l-11.751-23.502h116.861l-11.751 23.502c-2.269 4.537-6.906 7.403-11.979 7.403z" fill="#4E4E4E"/><g><path d="m512 115.629c0-64.427-52.692-116.547-117.332-115.617-62.614.901-113.528 52.251-113.924 114.87-.222 35.068 15.173 66.542 39.634 87.89 2.581 2.253 2.21 6.364-.739 8.109l-21.788 12.891c-3.522 2.084-2.044 7.484 2.049 7.483l98.661-.024c62.848-1.168 113.439-52.474 113.439-115.602z" fill="#4caf50"/></g><path d="m431.986 5.592c29.702 20.928 49.108 55.488 49.108 94.585 0 63.128-50.591 114.433-113.439 115.602l-56.318.014-13.487 7.98c-3.522 2.084-2.044 7.484 2.049 7.483l98.661-.024c62.849-1.169 113.44-52.474 113.44-115.603 0-51.432-33.581-95.019-80.014-110.037z" fill="#4caf50"/><g><g fill="#fff"><path d="m389.37 83.608c-.026-.069-.053-.139-.081-.208-1.385-3.37-4.634-5.547-8.277-5.547-.003 0-.006 0-.008 0-3.647.003-6.895 2.186-8.276 5.561-.023.058-.046.116-.068.175l-20.251 53.17c-1.519 3.987.483 8.451 4.471 9.97.904.345 1.834.508 2.749.508 3.113 0 6.047-1.895 7.221-4.979l3.148-8.266h21.87l3.111 8.244c1.506 3.992 5.965 6.008 9.957 4.5 3.992-1.506 6.007-5.964 4.5-9.957zm-13.486 34.931 5.1-13.39 5.053 13.39z"/><path d="m340.749 93.7c4.268 0 7.726-3.459 7.726-7.726 0-4.268-3.459-7.726-7.726-7.726h-21.697c-4.268 0-7.726 3.459-7.726 7.726v53.534c0 4.268 3.459 7.726 7.726 7.726s7.726-3.459 7.726-7.726v-19.547h12.247c4.268 0 7.726-3.459 7.726-7.726 0-4.268-3.459-7.726-7.726-7.726h-12.247v-10.809z"/><path d="m485.322 133.826-3.105-3.105c3.268-5.29 5.159-11.516 5.159-18.178 0-19.129-15.562-34.691-34.691-34.691-19.128 0-34.69 15.562-34.69 34.691s15.562 34.691 34.69 34.691c6.882 0 13.297-2.023 18.697-5.493l3.012 3.012c1.509 1.508 3.487 2.263 5.464 2.263s3.955-.755 5.464-2.263c3.017-3.018 3.017-7.909 0-10.927zm-32.637-2.044c-10.608 0-19.237-8.631-19.237-19.238s8.63-19.238 19.237-19.238c10.608 0 19.238 8.631 19.238 19.238 0 2.347-.443 4.587-1.216 6.668l-2.638-2.638c-3.018-3.016-7.909-3.016-10.928 0-3.017 3.018-3.017 7.909 0 10.928l2.836 2.836c-2.251.925-4.711 1.444-7.292 1.444z"/></g><path d="m485.322 144.754c3.017-3.018 3.017-7.909 0-10.928l-3.105-3.105c3.268-5.29 5.159-11.516 5.159-18.178 0-7.557-2.436-14.552-6.555-20.257.176 2.608.273 5.237.273 7.89 0 15.2-2.94 29.711-8.271 43.006l1.571 1.571c1.509 1.508 3.487 2.263 5.464 2.263s3.955-.754 5.464-2.262z" fill="#f9f7f8"/></g><g><path d="m276.94 417.716h-165.502v-27.285c0-45.702 37.049-82.751 82.751-82.751 45.702 0 82.751 37.049 82.751 82.751z" fill="#87DEAE"/><g><path d="m209.642 348.117c15.944 0 29.911-8.452 37.674-21.117-14.376-12.053-32.899-19.32-53.127-19.32-9.782 0-19.162 1.709-27.873 4.825 3.983 20.297 21.862 35.612 43.326 35.612z" fill="#2FB185"/><path d="m194.189 319.158c-24.389 0-44.16-19.771-44.16-44.16v-53.879c0-14.298 11.59-25.888 25.888-25.888h36.543c14.298 0 25.888 11.59 25.888 25.888v53.879c.001 24.389-19.77 44.16-44.159 44.16z" fill="#ffcebf"/><path d="m212.461 195.231h-36.543c-14.298 0-25.888 11.591-25.888 25.888v32.939l37.422-12.328c13.8-4.546 28.926-2.46 40.979 5.653l9.918 6.676v-32.939c0-14.298-11.591-25.889-25.888-25.889z" fill="#c59191"/></g></g><g><path d="m402.208 286.241h-106.387c-4.268 0-7.726-3.459-7.726-7.726 0-4.268 3.459-7.726 7.726-7.726h106.387c4.268 0 7.726 3.459 7.726 7.726.001 4.268-3.458 7.726-7.726 7.726z" fill="#4E4F50"/></g><g><path d="m402.208 332.6h-106.387c-4.268 0-7.726-3.459-7.726-7.726s3.459-7.726 7.726-7.726h106.387c4.268 0 7.726 3.459 7.726 7.726s-3.458 7.726-7.726 7.726z" fill="#4E4F50"/></g><g><path d="m371.303 378.958h-60.029c-4.268 0-7.726-3.459-7.726-7.726s3.459-7.726 7.726-7.726h60.029c4.268 0 7.726 3.459 7.726 7.726s-3.459 7.726-7.726 7.726z" fill="#4E4F50"/></g></g></svg>