<svg height="512" viewBox="0 0 512 512" width="512" xmlns="http://www.w3.org/2000/svg"><g id="filled_outline" data-name="filled outline"><path d="m24 128h464a0 0 0 0 1 0 0v288a16 16 0 0 1 -16 16h-432a16 16 0 0 1 -16-16v-288a0 0 0 0 1 0 0z" fill="#eaeae8"/><path d="m344 384h-144a16 16 0 0 1 -16-16v-192h160z" fill="#0bafea"/><path d="m304 240h-88a8 8 0 0 1 0-16h88a8 8 0 0 1 0 16z" fill="#0a9acd"/><path d="m344 192h-144a16 16 0 0 1 -16-16 16 16 0 0 1 16-16h144z" fill="#cbcbcb"/><circle cx="184" cy="288" fill="#fbb540" r="64"/><path d="m40 80h432a16 16 0 0 1 16 16v32a0 0 0 0 1 0 0h-464a0 0 0 0 1 0 0v-32a16 16 0 0 1 16-16z" fill="#0a9acd"/><path d="m200 280a8 8 0 0 0 8-8v-1.167a22.874 22.874 0 0 0 -16-21.788v-1.045a8 8 0 0 0 -16 0v1.045a22.834 22.834 0 0 0 -3.378 42.21l15.6 7.8a6.833 6.833 0 0 1 -3.055 12.945h-2.334a6.84 6.84 0 0 1 -6.833-6.833v-1.167a8 8 0 0 0 -16 0v1.167a22.874 22.874 0 0 0 16 21.788v1.045a8 8 0 0 0 16 0v-1.045a22.834 22.834 0 0 0 3.378-42.21l-15.6-7.8a6.833 6.833 0 0 1 3.055-12.945h2.334a6.84 6.84 0 0 1 6.833 6.833v1.167a8 8 0 0 0 8 8z" fill="#d18d28"/><path d="m304 272h-24a8 8 0 0 1 0-16h24a8 8 0 0 1 0 16z" fill="#0a9acd"/><path d="m296 336h-24a8 8 0 0 1 0-16h24a8 8 0 0 1 0 16z" fill="#0a9acd"/><path d="m416 112h-8a8 8 0 0 1 0-16h8a8 8 0 0 1 0 16z" fill="#0a6fa2"/><path d="m456 112h-8a8 8 0 0 1 0-16h8a8 8 0 0 1 0 16z" fill="#0a6fa2"/><circle cx="344" cy="352" fill="#02a437" r="48"/><path d="m365.657 346.343a8 8 0 0 0 -11.314 0l-2.343 2.343v-20.686a8 8 0 0 0 -16 0v20.686l-2.343-2.343a8 8 0 0 0 -11.314 11.314l16 16a8 8 0 0 0 11.314 0l16-16a8 8 0 0 0 0-11.314z" fill="#027e2a"/><path d="m176 359.545v8.455a24.027 24.027 0 0 0 24 24h104.862a55.982 55.982 0 1 0 47.138-95.419v-136.581a8 8 0 0 0 -8-8h-144a24.028 24.028 0 0 0 -24 24v40.455a71.99 71.99 0 0 0 0 143.09zm208-7.545a40 40 0 1 1 -40-40 40.045 40.045 0 0 1 40 40zm-184-184h136v16h-136a8 8 0 0 1 0-16zm-8 30.624a23.885 23.885 0 0 0 8 1.376h136v96.581a56.057 56.057 0 0 0 -38.087 23.659 7.994 7.994 0 0 0 -1.913-.24h-24a8 8 0 0 0 0 16h18.341a55.881 55.881 0 0 0 3.073 40h-93.414a8.009 8.009 0 0 1 -8-8v-8.455a71.942 71.942 0 0 0 45.608-119.545h66.392a8 8 0 0 0 0-16h-87.079a71.405 71.405 0 0 0 -24.921-7.545zm-8 33.376a56 56 0 1 1 -56 56 56.063 56.063 0 0 1 56-56z"/><path d="m472 72h-432a24.028 24.028 0 0 0 -24 24v320a24.028 24.028 0 0 0 24 24h432a24.028 24.028 0 0 0 24-24v-320a24.028 24.028 0 0 0 -24-24zm8 344a8.009 8.009 0 0 1 -8 8h-432a8.009 8.009 0 0 1 -8-8v-280h448zm0-296h-448v-24a8.009 8.009 0 0 1 8-8h432a8.009 8.009 0 0 1 8 8z"/><path d="m176 326.955v1.045a8 8 0 0 0 16 0v-1.045a22.834 22.834 0 0 0 3.378-42.21l-15.6-7.8a6.833 6.833 0 0 1 3.055-12.945h2.334a6.84 6.84 0 0 1 6.833 6.833v1.167a8 8 0 0 0 16 0v-1.167a22.874 22.874 0 0 0 -16-21.788v-1.045a8 8 0 0 0 -16 0v1.045a22.834 22.834 0 0 0 -3.378 42.21l15.6 7.8a6.833 6.833 0 0 1 -3.055 12.945h-2.334a6.84 6.84 0 0 1 -6.833-6.833v-1.167a8 8 0 0 0 -16 0v1.167a22.874 22.874 0 0 0 16 21.788z"/><path d="m304 256h-24a8 8 0 0 0 0 16h24a8 8 0 0 0 0-16z"/><path d="m416 96h-8a8 8 0 0 0 0 16h8a8 8 0 0 0 0-16z"/><path d="m456 96h-8a8 8 0 0 0 0 16h8a8 8 0 0 0 0-16z"/><path d="m365.657 346.343a8 8 0 0 0 -11.314 0l-2.343 2.343v-20.686a8 8 0 0 0 -16 0v20.686l-2.343-2.343a8 8 0 0 0 -11.314 11.314l16 16a8 8 0 0 0 11.314 0l16-16a8 8 0 0 0 0-11.314z"/></g></svg>