<svg id="Capa_1" enable-background="new 0 0 512.333 512.333" height="512" viewBox="0 0 512.333 512.333" width="512" xmlns="http://www.w3.org/2000/svg"><g id="XMLID_1_"><path id="XMLID_1391_" d="m462.333 502.167h-296c-22.091 0-40-17.909-40-40v-412c0-22.091 17.909-40 40-40h296c22.091 0 40 17.909 40 40v412c0 22.091-17.909 40-40 40z" fill="#8aa8bd"/><path id="XMLID_1390_" d="m174.333 54.167h280v80h-280z" fill="#e2e9ee"/><path id="XMLID_1389_" d="m326.333 350.167h-24c-11.046 0-20-8.954-20-20v-24c0-11.046 8.954-20 20-20h24c11.046 0 20 8.954 20 20v24c0 11.045-8.954 20-20 20z" fill="#fff"/><path id="XMLID_1388_" d="m326.333 458.167h-24c-11.046 0-20-8.954-20-20v-24c0-11.046 8.954-20 20-20h24c11.046 0 20 8.954 20 20v24c0 11.045-8.954 20-20 20z" fill="#fff"/><path id="XMLID_1387_" d="m434.333 458.167h-24c-11.046 0-20-8.954-20-20v-132c0-11.046 8.954-20 20-20h24c11.046 0 20 8.954 20 20v132c0 11.045-8.954 20-20 20z" fill="#a0e4a5"/><path id="XMLID_1386_" d="m218.333 242.167h-24c-11.046 0-20-8.954-20-20v-24c0-11.046 8.954-20 20-20h24c11.046 0 20 8.954 20 20v24c0 11.045-8.954 20-20 20z" fill="#fff"/><path id="XMLID_1385_" d="m326.333 242.167h-24c-11.046 0-20-8.954-20-20v-24c0-11.046 8.954-20 20-20h24c11.046 0 20 8.954 20 20v24c0 11.045-8.954 20-20 20z" fill="#fff"/><path id="XMLID_1382_" d="m434.333 242.167h-24c-11.046 0-20-8.954-20-20v-24c0-11.046 8.954-20 20-20h24c11.046 0 20 8.954 20 20v24c0 11.045-8.954 20-20 20z" fill="#ff7d97"/><g id="XMLID_1410_"><circle id="XMLID_1560_" cx="144" cy="368.167" fill="#ffec80" r="134"/><g id="XMLID_248_"><path id="XMLID_269_" d="m462.333.167h-296c-27.57 0-50 22.43-50 50v176.678c-66.21 12.937-116.333 71.381-116.333 141.322 0 79.402 64.598 144 144 144h318.333c27.57 0 50-22.43 50-50v-412c0-27.571-22.43-50-50-50zm-442.333 368c0-68.374 55.626-124 124-124s124 55.626 124 124-55.626 124-124 124-124-55.626-124-124zm164.333-146v-24c0-5.514 4.486-10 10-10h24c5.514 0 10 4.486 10 10v24c0 5.514-4.486 10-10 10h-24c-5.514 0-10-4.486-10-10zm308 240c0 16.542-13.458 30-30 30h-245.202c23.504-13.915 42.735-34.312 55.202-58.721v4.721c0 16.542 13.458 30 30 30h24c16.542 0 30-13.458 30-30v-24c0-16.542-13.458-30-30-30h-24c-5.795 0-11.208 1.656-15.801 4.514.96-6.703 1.468-13.55 1.468-20.514 0-4.021-.174-8.001-.499-11.939 4.378 2.501 9.439 3.939 14.832 3.939h24c16.542 0 30-13.458 30-30v-24c0-16.542-13.458-30-30-30h-24c-15.536 0-28.35 11.872-29.851 27.02-10.617-20.906-26.183-38.893-45.153-52.4 12.16-3.831 21.004-15.211 21.004-28.62v-24c0-16.542-13.458-30-30-30h-24c-16.542 0-30 13.458-30 30v24c0 1.175.075 2.331.207 3.471-6.711-.963-13.567-1.471-20.54-1.471-2.572 0-5.128.071-7.667.205v-174.205c0-16.542 13.458-30 30-30h296c16.542 0 30 13.458 30 30zm-200-24v-24c0-5.514 4.486-10 10-10h24c5.514 0 10 4.486 10 10v24c0 5.514-4.486 10-10 10h-24c-5.514 0-10-4.486-10-10zm0-108v-24c0-5.514 4.486-10 10-10h24c5.514 0 10 4.486 10 10v24c0 5.514-4.486 10-10 10h-24c-5.514 0-10-4.486-10-10z"/><path id="XMLID_1383_" d="m454.333 44.167h-95c-5.522 0-10 4.477-10 10s4.478 10 10 10h85v60h-260v-60h85c5.522 0 10-4.477 10-10s-4.478-10-10-10h-95c-5.522 0-10 4.477-10 10v80c0 5.523 4.478 10 10 10h280c5.522 0 10-4.477 10-10v-80c0-5.523-4.478-10-10-10z"/><path id="XMLID_1536_" d="m326.333 168.167h-24c-16.542 0-30 13.458-30 30v24c0 16.542 13.458 30 30 30h24c16.542 0 30-13.458 30-30v-24c0-16.542-13.458-30-30-30zm10 54c0 5.514-4.486 10-10 10h-24c-5.514 0-10-4.486-10-10v-24c0-5.514 4.486-10 10-10h24c5.514 0 10 4.486 10 10z"/><path id="XMLID_1558_" d="m434.333 168.167h-24c-16.542 0-30 13.458-30 30v24c0 16.542 13.458 30 30 30h24c16.542 0 30-13.458 30-30v-24c0-16.542-13.458-30-30-30zm10 54c0 5.514-4.486 10-10 10h-24c-5.514 0-10-4.486-10-10v-24c0-5.514 4.486-10 10-10h24c5.514 0 10 4.486 10 10z"/><path id="XMLID_1685_" d="m434.333 276.167h-24c-16.542 0-30 13.458-30 30v132c0 16.542 13.458 30 30 30h24c16.542 0 30-13.458 30-30v-132c0-16.542-13.458-30-30-30zm10 162c0 5.514-4.486 10-10 10h-24c-5.514 0-10-4.486-10-10v-132c0-5.514 4.486-10 10-10h24c5.514 0 10 4.486 10 10z"/><path id="XMLID_1686_" d="m314.333 64.167c2.63 0 5.21-1.07 7.069-2.93 1.86-1.86 2.931-4.44 2.931-7.07s-1.07-5.21-2.931-7.07c-1.859-1.86-4.439-2.93-7.069-2.93s-5.21 1.07-7.07 2.93-2.93 4.44-2.93 7.07 1.069 5.21 2.93 7.07 4.44 2.93 7.07 2.93z"/><path id="XMLID_1687_" d="m176.605 302.354c-4.966-2.411-10.951-.342-13.363 4.627l-55.024 113.305c-2.413 4.968-.341 10.952 4.627 13.364 1.407.683 2.895 1.007 4.361 1.007 3.709 0 7.273-2.073 9.002-5.634l55.024-113.305c2.414-4.968.342-10.951-4.627-13.364z"/><path id="XMLID_1690_" d="m118.724 296.738c-12.478-12.478-32.783-12.479-45.263 0-12.479 12.479-12.479 32.784 0 45.263 6.24 6.239 14.436 9.358 22.631 9.358 8.196 0 16.393-3.12 22.632-9.358 12.478-12.479 12.478-32.784 0-45.263zm-14.143 31.121c-4.681 4.68-12.297 4.682-16.978 0-4.682-4.681-4.682-12.297 0-16.978 2.34-2.341 5.414-3.511 8.489-3.511 3.074 0 6.148 1.17 8.488 3.511 4.683 4.681 4.683 12.297.001 16.978z"/><path id="XMLID_1693_" d="m171.055 394.332c-12.479 12.479-12.479 32.784 0 45.263 6.239 6.239 14.436 9.359 22.631 9.359 8.196 0 16.393-3.12 22.632-9.359 12.479-12.479 12.479-32.784 0-45.263-12.481-12.478-32.785-12.477-45.263 0zm31.12 31.12c-4.681 4.683-12.299 4.681-16.978 0-4.682-4.681-4.682-12.297 0-16.978 2.34-2.34 5.414-3.511 8.489-3.511 3.074 0 6.148 1.17 8.488 3.511 4.682 4.681 4.682 12.297.001 16.978z"/></g></g></g></svg>