<svg id="Capa_1" enable-background="new 0 0 512 512" height="512" viewBox="0 0 512 512" width="512" xmlns="http://www.w3.org/2000/svg"><g><g><path d="m401.5 504.5h-291c-17.673 0-32-14.327-32-32v-433c0-17.673 14.327-32 32-32h291c17.673 0 32 14.327 32 32v433c0 17.673-14.327 32-32 32z" fill="#0067c5"/><path d="m124.425 156.381v-88.075c0-9.389 7.611-17 17-17h229.15c9.389 0 17 7.611 17 17v88.075c0 9.389-7.611 17-17 17h-229.15c-9.389 0-17-7.611-17-17z" fill="#d3e1f5"/><g fill="#82aee3"><path d="m342 242.096v-21.096c0-3.314 2.686-6 6-6h33.575c3.314 0 6 2.686 6 6v21.096c0 3.314-2.686 6-6 6h-33.575c-3.314 0-6-2.686-6-6z"/><path d="m124.425 454.694v-29.194c0-3.314 2.686-6 6-6h31.075c3.314 0 6 2.686 6 6v29.194c0 3.314-2.686 6-6 6h-31.075c-3.314 0-6-2.686-6-6z"/><path d="m195.291 454.694v-29.194c0-3.314 2.686-6 6-6h31.075c3.314 0 6 2.686 6 6v29.194c0 3.314-2.686 6-6 6h-31.075c-3.314 0-6-2.686-6-6z"/><path d="m266.157 454.694v-29.194c0-3.314 2.686-6 6-6h31.075c3.314 0 6 2.686 6 6v29.194c0 3.314-2.686 6-6 6h-31.075c-3.313 0-6-2.686-6-6z"/><path d="m124.425 383.828v-29.194c0-3.314 2.686-6 6-6h31.075c3.314 0 6 2.686 6 6v29.194c0 3.314-2.686 6-6 6h-31.075c-3.314 0-6-2.686-6-6z"/><path d="m195.291 383.828v-29.194c0-3.314 2.686-6 6-6h31.075c3.314 0 6 2.686 6 6v29.194c0 3.314-2.686 6-6 6h-31.075c-3.314 0-6-2.686-6-6z"/><path d="m266.157 383.828v-29.194c0-3.314 2.686-6 6-6h31.075c3.314 0 6 2.686 6 6v29.194c0 3.314-2.686 6-6 6h-31.075c-3.313 0-6-2.686-6-6z"/><path d="m124.425 312.962v-29.194c0-3.314 2.686-6 6-6h31.075c3.314 0 6 2.686 6 6v29.194c0 3.314-2.686 6-6 6h-31.075c-3.314 0-6-2.686-6-6z"/><path d="m195.291 312.962v-29.194c0-3.314 2.686-6 6-6h31.075c3.314 0 6 2.686 6 6v29.194c0 3.314-2.686 6-6 6h-31.075c-3.314 0-6-2.686-6-6z"/><path d="m266.157 312.962v-29.194c0-3.314 2.686-6 6-6h31.075c3.314 0 6 2.686 6 6v29.194c0 3.314-2.686 6-6 6h-31.075c-3.313 0-6-2.686-6-6z"/><path d="m124.425 242.096v-21.096c0-3.314 2.686-6 6-6h101.941c3.314 0 6 2.686 6 6v21.096c0 3.314-2.686 6-6 6h-101.941c-3.314 0-6-2.686-6-6z"/><path d="m266.157 242.096v-21.096c0-3.314 2.686-6 6-6h31.075c3.314 0 6 2.686 6 6v21.096c0 3.314-2.686 6-6 6h-31.075c-3.313 0-6-2.686-6-6z"/><path d="m342 454.694v-170.926c0-3.314 2.686-6 6-6h33.575c3.314 0 6 2.686 6 6v170.927c0 3.314-2.686 6-6 6h-33.575c-3.314-.001-6-2.687-6-6.001z"/></g><g><path d="m251.913 153.338h-9.075c-12.958 0-23.5-10.542-23.5-23.5v-33.5c0-12.958 10.542-23.5 23.5-23.5h9.075c12.958 0 23.5 10.542 23.5 23.5v33.5c0 12.958-10.542 23.5-23.5 23.5zm-9.075-65.5c-4.687 0-8.5 3.813-8.5 8.5v33.5c0 4.687 3.813 8.5 8.5 8.5h9.075c4.687 0 8.5-3.813 8.5-8.5v-33.5c0-4.687-3.813-8.5-8.5-8.5z" fill="#444"/></g><g><path d="m293.038 153.338c-4.142 0-7.5-3.358-7.5-7.5v-11c0-4.142 3.358-7.5 7.5-7.5s7.5 3.358 7.5 7.5v11c0 4.142-3.358 7.5-7.5 7.5z" fill="#444"/></g><g><path d="m343.236 153.338h-9.075c-12.958 0-23.5-10.542-23.5-23.5v-33.5c0-12.958 10.542-23.5 23.5-23.5h9.075c12.958 0 23.5 10.542 23.5 23.5v33.5c0 12.958-10.542 23.5-23.5 23.5zm-9.074-65.5c-4.687 0-8.5 3.813-8.5 8.5v33.5c0 4.687 3.813 8.5 8.5 8.5h9.075c4.687 0 8.5-3.813 8.5-8.5v-33.5c0-4.687-3.813-8.5-8.5-8.5z" fill="#444"/></g><path d="m401.5 7.5h-45.925c17.673 0 32 14.327 32 32v433c0 17.673-14.327 32-32 32h45.925c17.673 0 32-14.327 32-32v-433c0-17.673-14.327-32-32-32z" fill="#0055a3"/></g><g><path d="m401.5 0h-291.007c-.645 0-1.286.016-1.922.047-.007 0-.014 0-.021.001-21.056 1.027-37.55 18.352-37.55 39.452v351.286c0 4.142 3.358 7.5 7.5 7.5s7.5-3.358 7.5-7.5v-351.286c0-13.088 10.227-23.834 23.283-24.47h.006c.403-.02.809-.03 1.211-.03h291c13.509 0 24.5 10.991 24.5 24.5v45.144c0 4.142 3.358 7.5 7.5 7.5s7.5-3.358 7.5-7.5v-45.144c0-21.78-17.72-39.5-39.5-39.5z"/><path d="m433.5 112.144c-4.142 0-7.5 3.358-7.5 7.5v352.856c0 12.676-9.497 23.159-22.089 24.383-.001 0-.002 0-.002 0-.793.078-1.603.117-2.409.117h-291c-13.509 0-24.5-10.991-24.5-24.5v-46.714c0-4.142-3.358-7.5-7.5-7.5s-7.5 3.358-7.5 7.5v46.714c0 21.78 17.72 39.5 39.5 39.5h291c1.29 0 2.589-.063 3.864-.187h.003c20.315-1.978 35.633-18.878 35.633-39.313v-352.856c0-4.143-3.358-7.5-7.5-7.5z"/><path d="m395.075 68.306c0-13.509-10.991-24.5-24.5-24.5h-229.15c-13.509 0-24.5 10.991-24.5 24.5v88.075c0 13.509 10.991 24.5 24.5 24.5h229.15c13.509 0 24.5-10.991 24.5-24.5zm-15 88.075c0 5.238-4.262 9.5-9.5 9.5h-229.15c-5.238 0-9.5-4.262-9.5-9.5v-88.075c0-5.238 4.262-9.5 9.5-9.5h229.15c5.238 0 9.5 4.262 9.5 9.5z"/><path d="m395.075 221c0-7.444-6.056-13.5-13.5-13.5h-33.575c-7.444 0-13.5 6.056-13.5 13.5v21.096c0 7.444 6.056 13.5 13.5 13.5h33.575c7.444 0 13.5-6.056 13.5-13.5zm-15 19.596h-30.575v-18.096h30.575z"/><path d="m116.925 454.694c0 7.444 6.056 13.5 13.5 13.5h31.075c7.444 0 13.5-6.056 13.5-13.5v-29.194c0-7.444-6.056-13.5-13.5-13.5h-31.075c-7.444 0-13.5 6.056-13.5 13.5zm15-27.694h28.075v26.194h-28.075z"/><path d="m232.366 412h-31.075c-7.444 0-13.5 6.056-13.5 13.5v29.194c0 7.444 6.056 13.5 13.5 13.5h31.075c7.444 0 13.5-6.056 13.5-13.5v-29.194c0-7.444-6.056-13.5-13.5-13.5zm-1.5 41.194h-28.075v-26.194h28.075z"/><path d="m303.232 412h-31.075c-7.444 0-13.5 6.056-13.5 13.5v29.194c0 7.444 6.056 13.5 13.5 13.5h31.075c7.444 0 13.5-6.056 13.5-13.5v-29.194c0-7.444-6.056-13.5-13.5-13.5zm-1.5 41.194h-28.075v-26.194h28.075z"/><path d="m116.925 383.828c0 7.444 6.056 13.5 13.5 13.5h31.075c7.444 0 13.5-6.056 13.5-13.5v-29.194c0-7.444-6.056-13.5-13.5-13.5h-31.075c-7.444 0-13.5 6.056-13.5 13.5zm15-27.694h28.075v26.194h-28.075z"/><path d="m245.866 354.634c0-7.444-6.056-13.5-13.5-13.5h-31.075c-7.444 0-13.5 6.056-13.5 13.5v29.194c0 7.444 6.056 13.5 13.5 13.5h31.075c7.444 0 13.5-6.056 13.5-13.5zm-15 27.694h-28.075v-26.194h28.075z"/><path d="m316.732 354.634c0-7.444-6.056-13.5-13.5-13.5h-31.075c-7.444 0-13.5 6.056-13.5 13.5v29.194c0 7.444 6.056 13.5 13.5 13.5h31.075c7.444 0 13.5-6.056 13.5-13.5zm-15 27.694h-28.075v-26.194h28.075z"/><path d="m116.925 312.962c0 7.444 6.056 13.5 13.5 13.5h31.075c7.444 0 13.5-6.056 13.5-13.5v-29.194c0-7.444-6.056-13.5-13.5-13.5h-31.075c-7.444 0-13.5 6.056-13.5 13.5zm15-27.694h28.075v26.194h-28.075z"/><path d="m245.866 283.768c0-7.444-6.056-13.5-13.5-13.5h-31.075c-7.444 0-13.5 6.056-13.5 13.5v29.194c0 7.444 6.056 13.5 13.5 13.5h31.075c7.444 0 13.5-6.056 13.5-13.5zm-15 27.694h-28.075v-26.194h28.075z"/><path d="m316.732 283.768c0-7.444-6.056-13.5-13.5-13.5h-31.075c-7.444 0-13.5 6.056-13.5 13.5v29.194c0 7.444 6.056 13.5 13.5 13.5h31.075c7.444 0 13.5-6.056 13.5-13.5zm-15 27.694h-28.075v-26.194h28.075z"/><path d="m116.925 242.096c0 7.444 6.056 13.5 13.5 13.5h101.941c7.444 0 13.5-6.056 13.5-13.5v-21.096c0-7.444-6.056-13.5-13.5-13.5h-101.941c-7.444 0-13.5 6.056-13.5 13.5zm15-19.596h98.941v18.096h-98.941z"/><path d="m316.732 221c0-7.444-6.056-13.5-13.5-13.5h-31.075c-7.444 0-13.5 6.056-13.5 13.5v21.096c0 7.444 6.056 13.5 13.5 13.5h31.075c7.444 0 13.5-6.056 13.5-13.5zm-15 19.596h-28.075v-18.096h28.075z"/><path d="m381.575 270.268h-33.575c-7.444 0-13.5 6.056-13.5 13.5v170.927c0 7.444 6.056 13.5 13.5 13.5h33.575c7.444 0 13.5-6.056 13.5-13.5v-170.927c0-7.444-6.056-13.5-13.5-13.5zm-1.5 182.926h-30.575v-167.926h30.575z"/><path d="m251.913 72.838h-9.075c-12.958 0-23.5 10.542-23.5 23.5v33.5c0 12.958 10.542 23.5 23.5 23.5h9.075c12.958 0 23.5-10.542 23.5-23.5v-33.5c0-12.958-10.542-23.5-23.5-23.5zm8.5 57c0 4.687-3.813 8.5-8.5 8.5h-9.075c-4.687 0-8.5-3.813-8.5-8.5v-33.5c0-4.687 3.813-8.5 8.5-8.5h9.075c4.687 0 8.5 3.813 8.5 8.5z"/><path d="m293.038 127.338c-4.142 0-7.5 3.358-7.5 7.5v11c0 4.142 3.358 7.5 7.5 7.5s7.5-3.358 7.5-7.5v-11c0-4.142-3.358-7.5-7.5-7.5z"/><path d="m343.236 72.838h-9.075c-12.958 0-23.5 10.542-23.5 23.5v33.5c0 12.958 10.542 23.5 23.5 23.5h9.075c12.958 0 23.5-10.542 23.5-23.5v-33.5c0-12.958-10.542-23.5-23.5-23.5zm8.5 57c0 4.687-3.813 8.5-8.5 8.5h-9.075c-4.687 0-8.5-3.813-8.5-8.5v-33.5c0-4.687 3.813-8.5 8.5-8.5h9.075c4.687 0 8.5 3.813 8.5 8.5z"/></g></g></svg>