<svg id="color" enable-background="new 0 0 24 24" height="512" viewBox="0 0 24 24" width="512" xmlns="http://www.w3.org/2000/svg"><path d="m21.25 18c-.414 0-.75-.336-.75-.75v-4.5c0-.414.336-.75.75-.75s.75.336.75.75v4.5c0 .414-.336.75-.75.75z" fill="#607d8b"/><path d="m21.25 12c-.414 0-.75.336-.75.75v4.5c0 .414.336.75.75.75z" fill="#546d79"/><path d="m17.5 19.5h-8c-.276 0-.5-.224-.5-.5v-5.25c0-.276.224-.5.5-.5h8c.276 0 .5.224.5.5v5.25c0 .276-.224.5-.5.5z" fill="#2196f3"/><path d="m17.5 13.25h-8c-.276 0-.5-.224-.5-.5v-5.25c0-.276.224-.5.5-.5h8c.276 0 .5.224.5.5v5.25c0 .276-.224.5-.5.5z" fill="#4caf50"/><path d="m13.5 13.25h-4c-.276 0-.5.224-.5.5v5.25c0 .276.224.5.5.5h4z" fill="#1d83d4"/><path d="m13.5 7h-4c-.276 0-.5.224-.5.5v5.25c0 .276.224.5.5.5h4z" fill="#429846"/><path d="m9 19.5h-8c-.276 0-.5-.224-.5-.5v-5.25c0-.276.224-.5.5-.5h8c.276 0 .5.224.5.5v5.25c0 .276-.224.5-.5.5z" fill="#4caf50"/><path d="m9 13.25h-8c-.276 0-.5-.224-.5-.5v-5.25c0-.276.224-.5.5-.5h8c.276 0 .5.224.5.5v5.25c0 .276-.224.5-.5.5z" fill="#2196f3"/><path d="m9 7h-8c-.276 0-.5-.224-.5-.5v-5.25c0-.276.224-.5.5-.5h8c.276 0 .5.224.5.5v5.25c0 .276-.224.5-.5.5z" fill="#ffb300"/><path d="m5 13.25h-4c-.276 0-.5.224-.5.5v5.25c0 .276.224.5.5.5h4z" fill="#429846"/><path d="m5 7h-4c-.276 0-.5.224-.5.5v5.25c0 .276.224.5.5.5h4z" fill="#1d83d4"/><path d="m5 .75h-4c-.276 0-.5.224-.5.5v5.25c0 .276.224.5.5.5h4z" fill="#de9c00"/><path d="m15 18.5c-.414 0-.75-.336-.75-.75v-2.75c0-.414.336-.75.75-.75s.75.336.75.75v2.75c0 .414-.336.75-.75.75z" fill="#1976d2"/><path d="m6.5 18.5c-.414 0-.75-.336-.75-.75v-2.75c0-.414.336-.75.75-.75s.75.336.75.75v2.75c0 .414-.336.75-.75.75z" fill="#388e3c"/><path d="m15 12.25c-.414 0-.75-.336-.75-.75v-2.75c0-.414.336-.75.75-.75s.75.336.75.75v2.75c0 .414-.336.75-.75.75z" fill="#388e3c"/><path d="m6.5 12.25c-.414 0-.75-.336-.75-.75v-2.75c0-.414.336-.75.75-.75s.75.336.75.75v2.75c0 .414-.336.75-.75.75z" fill="#1976d2"/><path d="m6.5 6c-.414 0-.75-.336-.75-.75v-2.75c0-.414.336-.75.75-.75s.75.336.75.75v2.75c0 .414-.336.75-.75.75z" fill="#ff8f00"/><path d="m3.5 18.5c-.414 0-.75-.336-.75-.75v-2.75c0-.414.336-.75.75-.75s.75.336.75.75v2.75c0 .414-.336.75-.75.75z" fill="#388e3c"/><path d="m3.5 12.25c-.414 0-.75-.336-.75-.75v-2.75c0-.414.336-.75.75-.75s.75.336.75.75v2.75c0 .414-.336.75-.75.75z" fill="#1976d2"/><path d="m3.5 6c-.414 0-.75-.336-.75-.75v-2.75c0-.414.336-.75.75-.75s.75.336.75.75v2.75c0 .414-.336.75-.75.75z" fill="#ff8f00"/><path d="m3.5 14.25c-.414 0-.75.336-.75.75v2.75c0 .414.336.75.75.75z" fill="#317c34"/><path d="m3.5 8c-.414 0-.75.336-.75.75v2.75c0 .414.336.75.75.75z" fill="#1667b7"/><path d="m3.5 1.75c-.414 0-.75.336-.75.75v2.75c0 .414.336.75.75.75z" fill="#de7c00"/><path d="m6.5 14.25c-.414 0-.75.336-.75.75v2.75c0 .414.336.75.75.75z" fill="#317c34"/><path d="m6.5 8c-.414 0-.75.336-.75.75v2.75c0 .414.336.75.75.75z" fill="#1667b7"/><path d="m6.5 1.75c-.414 0-.75.336-.75.75v2.75c0 .414.336.75.75.75z" fill="#de7c00"/><path d="m12 18.5c-.414 0-.75-.336-.75-.75v-2.75c0-.414.336-.75.75-.75s.75.336.75.75v2.75c0 .414-.336.75-.75.75z" fill="#1976d2"/><path d="m12 12.25c-.414 0-.75-.336-.75-.75v-2.75c0-.414.336-.75.75-.75s.75.336.75.75v2.75c0 .414-.336.75-.75.75z" fill="#388e3c"/><path d="m12 14.25c-.414 0-.75.336-.75.75v2.75c0 .414.336.75.75.75z" fill="#1667b7"/><path d="m12 8c-.414 0-.75.336-.75.75v2.75c0 .414.336.75.75.75z" fill="#317c34"/><path d="m15 14.25c-.414 0-.75.336-.75.75v2.75c0 .414.336.75.75.75z" fill="#1667b7"/><path d="m15 8c-.414 0-.75.336-.75.75v2.75c0 .414.336.75.75.75z" fill="#317c34"/><path d="m20.25 24h-17.5c-.251 0-.485-.125-.624-.334l-2-3c-.153-.23-.168-.526-.037-.77.13-.244.385-.396.661-.396h13c1.241 0 2.25-1.009 2.25-2.25 0-.414.336-.75.75-.75h6.5c.26 0 .501.135.638.355.136.221.149.498.033.73l-3 6c-.127.254-.387.415-.671.415z" fill="#607d8b"/><path d="m12 19.5h-11.25c-.276 0-.531.152-.661.396-.059.109-.088.229-.089.348v.012c.001.144.044.286.126.41l2 3c.139.209.373.334.624.334h9.25z" fill="#546d79"/></svg>