<svg id="Layer_5" enable-background="new 0 0 64 64" height="512" viewBox="0 0 64 64" width="512" xmlns="http://www.w3.org/2000/svg"><g><g><g><path d="m54 6 2 4h-16l2-4z" fill="#ffeaa7"/></g><g><path d="m62 10v1l-2 5h-24l-2-5v-1h6 16z" fill="#fcd770"/></g><g><path d="m36 20v-4h24v8h-24z" fill="#ccd1d9"/></g><g><path d="m44 28c-1.1 0-2 .9-2 2 0-1.1-.9-2-2-2h-2-2v-4h24v12h-6v-6c0-1.1-.9-2-2-2h-2-4z" fill="#969faa"/></g><g><path d="m36 16v4l-23-12.38-3-1.62v-1.51c0-.69.28-1.31.73-1.76s1.07-.73 1.76-.73c.34 0 .67.07.98.2l20.53 8.8z" fill="#e6e9ed"/></g><g><circle cx="13" cy="14" fill="#fcd770" r="2"/></g><g><path d="m18 22h-10c-1.1 0-2 .9-2 2v8h14v-8c0-1.1-.9-2-2-2z" fill="#d3a06c"/></g><g><path d="m40 28h-8c-1.1 0-2 .9-2 2v8c0 1.1.9 2 2 2h8c1.1 0 2-.9 2-2v-8c0-1.1-.9-2-2-2z" fill="#d3a06c"/></g><g><path d="m52 28h-8c-1.1 0-2 .9-2 2v8c0 1.1.9 2 2 2h2l3-4h5v-6c0-1.1-.9-2-2-2z" fill="#d3a06c"/></g><g><path d="m22 32v4h-18v-4h2 14z" fill="#ccd1d9"/></g><g><path d="m56.45 50.62c-1.57-1.03-3.44-1.62-5.45-1.62-1.93 0-3.73.54-5.25 1.49-.97-.3-2.1-.49-3.43-.49-3.95 0-6.15 1.71-7.61 2.84-1.09.84-1.5 1.16-2.72 1.16-1.21 0-1.62-.32-2.72-1.16-1.45-1.13-3.66-2.84-7.61-2.84s-6.16 1.71-7.62 2.84c-1.09.84-1.5 1.16-2.71 1.16v-.01c-2.82-1.99-5.15-4.63-6.78-7.7s-2.55-6.57-2.55-10.29h2 18 2l3 4h5 8 4 2l3-4h5 6 2c0 5.6-2.09 10.72-5.54 14.6z" fill="#aab2bd"/></g><g><path d="m51 53c2.57 0 4.76 1.61 5.62 3.88-.98.63-2.16 1.12-3.96 1.12-3.31 0-4.5-1.64-6.29-2.82 1.1-1.33 2.77-2.18 4.63-2.18z" fill="#69d6f4"/></g><g><path d="m59.98 54.6c-1.32.6-2.21 1.54-3.36 2.28-.86-2.27-3.05-3.88-5.62-3.88-1.86 0-3.53.85-4.63 2.18-1-.66-2.19-1.18-4.03-1.18.83-1.43 2-2.64 3.41-3.51 1.52-.95 3.32-1.49 5.25-1.49 2.01 0 3.88.59 5.45 1.62.36.23.71.49 1.04.77 1.03.88 1.89 1.97 2.49 3.21z" fill="#4fc1e9"/></g><g><path d="m42.32 50c1.33 0 2.46.19 3.43.49-1.41.87-2.58 2.08-3.41 3.51-.01 0-.01 0-.02 0-5.16 0-5.16 4-10.33 4-5.16 0-5.16-4-10.33-4s-5.17 4-10.33 4c-5.17 0-5.17-4-10.33-4v-4c3.95 0 6.15 1.71 7.61 2.84 1.1.84 1.5 1.16 2.72 1.16 1.21 0 1.62-.32 2.71-1.16 1.46-1.13 3.67-2.84 7.62-2.84s6.16 1.71 7.61 2.84c1.1.84 1.51 1.16 2.72 1.16 1.22 0 1.63-.32 2.72-1.16 1.46-1.13 3.66-2.84 7.61-2.84z" fill="#69d6f4"/></g><g><path d="m42.34 54c1.84 0 3.03.52 4.03 1.18 1.79 1.18 2.98 2.82 6.29 2.82 1.8 0 2.98-.49 3.96-1.12 1.15-.74 2.04-1.68 3.36-2.28.8-.36 1.76-.6 3.02-.6v4c-1.22 0-1.63.32-2.72 1.16-1.46 1.13-3.67 2.84-7.62 2.84s-6.16-1.71-7.62-2.84c-1.09-.84-1.5-1.16-2.72-1.16-1.21 0-1.62.32-2.71 1.16-1.46 1.13-3.67 2.84-7.62 2.84s-6.15-1.71-7.61-2.84c-1.1-.84-1.5-1.16-2.72-1.16s-1.62.32-2.72 1.16c-1.46 1.13-3.66 2.84-7.61 2.84s-6.16-1.71-7.62-2.84c-1.09-.84-1.5-1.16-2.71-1.16v-4c5.16 0 5.16 4 10.33 4 5.16 0 5.16-4 10.33-4s5.17 4 10.33 4c5.17 0 5.17-4 10.33-4z" fill="#69d6f4"/></g><g><path d="m63 50v4c-1.26 0-2.22.24-3.02.6-.6-1.24-1.46-2.33-2.49-3.21 1.34-.75 3.1-1.39 5.51-1.39z" fill="#69d6f4"/></g><g><circle cx="11" cy="42" fill="#fcd770" r="2"/></g><g><circle cx="19" cy="42" fill="#fcd770" r="2"/></g><g><path d="m16 22v4h-6v-4h3z" fill="#b27946"/></g><g><path d="m38 28v4h-4v-4h2z" fill="#b27946"/></g><g><path d="m46 28h4v4h-4z" fill="#b27946"/></g></g><g><path d="m52.662 61c-3.609 0-5.571-1.518-7.006-2.627-1.142-.886-1.772-1.373-3.332-1.373-1.558 0-2.187.487-3.329 1.372-1.432 1.109-3.393 2.628-7.002 2.628-3.61 0-5.571-1.519-7.005-2.629-1.142-.884-1.772-1.371-3.33-1.371-1.557 0-2.186.487-3.328 1.372-1.432 1.109-3.393 2.628-7.002 2.628s-5.569-1.519-7.001-2.628c-1.141-.885-1.77-1.372-3.327-1.372v2c.873 0 1.061.146 2.103.953 1.47 1.139 3.933 3.047 8.225 3.047s6.755-1.907 8.228-3.047c1.042-.807 1.23-.953 2.102-.953.875 0 1.063.146 2.107.954 1.472 1.139 3.934 3.046 8.228 3.046 4.292 0 6.755-1.907 8.228-3.047 1.042-.807 1.23-.953 2.103-.953.876 0 1.063.146 2.109.955 1.473 1.139 3.937 3.045 8.229 3.045s6.756-1.906 8.229-3.046c1.046-.808 1.233-.954 2.109-.954v-2c-1.56 0-2.189.487-3.333 1.373-1.434 1.109-3.396 2.627-7.005 2.627z"/><path d="m11 39c-1.654 0-3 1.346-3 3s1.346 3 3 3 3-1.346 3-3-1.346-3-3-3zm0 4c-.552 0-1-.449-1-1s.448-1 1-1 1 .449 1 1-.448 1-1 1z"/><path d="m19 39c-1.654 0-3 1.346-3 3s1.346 3 3 3 3-1.346 3-3-1.346-3-3-3zm0 4c-.552 0-1-.449-1-1s.448-1 1-1 1 .449 1 1-.448 1-1 1z"/><path d="m63 11.192v-2.192h-6.382l-2-4h-13.236l-2 4h-6.382v.484l-19.136-8.202c-.436-.187-.899-.282-1.375-.282-1.924 0-3.489 1.565-3.489 3.489v2.108l3 1.615v2.972c-1.161.414-2 1.514-2 2.816s.839 2.402 2 2.816v4.184h-4c-1.654 0-3 1.346-3 3v7h-2v4h-2v1c0 5.075 1.689 9.946 4.687 13.901-1.257-.517-2.784-.901-4.687-.901v2c3.608 0 5.569 1.519 7.001 2.628 1.142.885 1.77 1.372 3.327 1.372s2.186-.487 3.328-1.372c1.432-1.109 3.394-2.628 7.002-2.628 3.609 0 5.571 1.519 7.006 2.629 1.143.884 1.773 1.371 3.329 1.371s2.186-.487 3.328-1.372c1.432-1.109 3.394-2.628 7.003-2.628.367 0 .716.041 1.069.074-.606.58-1.139 1.238-1.605 1.953-2.569.137-3.992 1.214-5.243 2.182-1.24.961-2.312 1.791-4.552 1.791-2.241 0-3.313-.83-4.555-1.791-1.337-1.035-2.854-2.209-5.78-2.209-2.925 0-4.44 1.174-5.777 2.209-1.24.961-2.313 1.791-4.553 1.791s-3.312-.83-4.552-1.791c-1.337-1.035-2.852-2.209-5.776-2.209v2c2.24 0 3.312.83 4.552 1.791 1.337 1.035 2.852 2.209 5.776 2.209 2.925 0 4.44-1.174 5.777-2.209 1.241-.961 2.313-1.791 4.553-1.791 2.242 0 3.314.83 4.556 1.791 1.338 1.035 2.854 2.209 5.779 2.209 2.924 0 4.44-1.174 5.777-2.209 1.242-.961 2.313-1.791 4.554-1.791 2.243 0 3.315.83 4.557 1.791 1.339 1.035 2.855 2.209 5.781 2.209s4.442-1.174 5.781-2.209c1.242-.961 2.314-1.791 4.557-1.791v-2c-1.013 0-1.849.147-2.576.374-.36-.605-.756-1.179-1.212-1.693 1.165-.454 2.414-.681 3.788-.681v-2c-1.693 0-3.234.292-4.674.879 3.019-3.983 4.674-8.843 4.674-13.879v-1h-2v-18.808zm-20.382-4.192h10.764l1 2h-12.764zm18.305 4-1.6 4h-22.646l-1.6-4zm-1.923 12h-22v-6h22zm-12 6h2v2h-2zm4 4v-4h1c.552 0 1 .449 1 1v5h-4.5l-3 4h-1.5c-.552 0-1-.449-1-1v-8c0-.551.448-1 1-1h1v4zm-10 5c0 .551-.448 1-1 1h-8c-.552 0-1-.449-1-1v-8c0-.551.448-1 1-1h1v4h6v-4h1c.552 0 1 .449 1 1zm-6-9h2v2h-2zm-24-24.511c0-.821.668-1.489 1.489-1.489.203 0 .4.041.587.12l20.149 8.635 1.775 4.437v2.134l-24-12.923zm2 8.511c.552 0 1 .449 1 1s-.448 1-1 1-1-.449-1-1 .448-1 1-1zm1 3.816c1.161-.414 2-1.514 2-2.816s-.839-2.402-2-2.816v-1.895l21 11.307v6.404h-3c-1.654 0-3 1.346-3 3v8c0 .352.072.686.184 1h-1.684l-3-4h-1.5v-4h-2v-7c0-1.654-1.346-3-3-3h-4zm-3 6.184h4v2h-4zm-4 1c0-.551.448-1 1-1h1v4h8v-4h1c.552 0 1 .449 1 1v7h-12zm-2 9h16v2h-16zm43.105 22.209c-.062-.048-.126-.096-.188-.144.872-.685 1.951-1.065 3.083-1.065 1.782 0 3.418.967 4.306 2.469-.701.325-1.527.531-2.644.531-2.243 0-3.315-.83-4.557-1.791zm9.114 0c-.08.062-.158.121-.236.181-1.253-2.064-3.517-3.39-5.983-3.39-1.805 0-3.513.692-4.807 1.916-.582-.311-1.243-.573-2.035-.735 1.695-1.985 4.188-3.181 6.842-3.181 3.139 0 5.967 1.601 7.608 4.218-.506.317-.96.659-1.389.991zm-1.013-5.883c-1.568-.842-3.337-1.326-5.206-1.326-1.914 0-3.762.51-5.383 1.422-1.036-.275-2.138-.422-3.293-.422-4.293 0-6.756 1.907-8.229 3.047-1.041.807-1.23.953-2.102.953-.874 0-1.062-.146-2.106-.954-1.472-1.139-3.936-3.046-8.229-3.046-4.292 0-6.755 1.907-8.228 3.047-.892.691-1.161.896-1.767.941-5.156-3.753-8.336-9.649-8.64-15.988h20.477l3 4h5.5 8 6.5l3-4h11.477c-.215 4.52-1.895 8.831-4.771 12.326zm-1.206-14.326v-5c0-1.654-1.346-3-3-3h-8c-.771 0-1.468.301-2 .78-.532-.48-1.229-.78-2-.78h-3v-2h22v10z"/><path d="m51 19h2v2h-2z"/><path d="m55 19h2v2h-2z"/><path d="m47 19h2v2h-2z"/><path d="m39 19h2v2h-2z"/><path d="m43 19h2v2h-2z"/><path d="m57 39h2v2h-2z"/><path d="m53 39h2v2h-2z"/><path d="m49 39h2v2h-2z"/></g></g></svg>