<?xml version="1.0" encoding="iso-8859-1"?>
<!-- Generator: Adobe Illustrator 19.0.0, SVG Export Plug-In . SVG Version: 6.00 Build 0)  -->
<svg version="1.1" id="Capa_1" xmlns="http://www.w3.org/2000/svg" xmlns:xlink="http://www.w3.org/1999/xlink" x="0px" y="0px"
	 viewBox="0 0 512 512" style="enable-background:new 0 0 512 512;" xml:space="preserve">
<path style="fill:#B4DEB2;" d="M436.78,485.279C421.056,502.253,398.764,512,375.622,512H136.386
	c-23.142,0-45.434-9.747-61.159-26.721c-15.724-16.974-23.732-39.946-21.962-63.028l22.872-288.189
	c1.419-18.523,17.124-33.058,35.737-33.058h288.259c18.613,0,34.318,14.535,35.737,33.098l22.862,288.109
	C460.512,445.333,452.505,468.305,436.78,485.279z"/>
<path style="fill:#86C983;" d="M436.78,485.279C421.056,502.253,398.764,512,375.622,512H255.874V101.004h144.259
	c18.613,0,34.318,14.535,35.737,33.098l22.862,288.109C460.512,445.333,452.505,468.305,436.78,485.279z"/>
<path style="fill:#B5B51F;" d="M354.969,98.975v68.946c0,8.287-6.708,14.995-14.995,14.995c-8.277,0-14.995-6.708-14.995-14.995
	V98.975c0-38.037-30.939-68.986-68.976-68.986h-0.13c-37.977,0.07-68.846,30.989-68.846,68.986v68.946
	c0,8.287-6.718,14.995-14.995,14.995c-8.287,0-14.995-6.708-14.995-14.995V98.975c0-54.531,44.324-98.905,98.835-98.975h0.13
	C310.575,0,354.969,44.404,354.969,98.975z"/>
<path style="fill:#FFFCE5;" d="M323.56,275.493l-67.686,67.686l-9.867,9.867c-2.929,2.929-6.768,4.398-10.606,4.398
	c-3.839,0-7.677-1.469-10.606-4.398l-36.347-36.347c-5.858-5.858-5.858-15.345,0-21.203c5.858-5.858,15.355-5.858,21.203,0
	l25.751,25.741l20.473-20.473l46.484-46.484c5.848-5.848,15.345-5.848,21.203,0C329.418,260.139,329.418,269.635,323.56,275.493z"/>
<path style="fill:#FFE89C;" d="M323.56,254.281c5.858,5.858,5.858,15.355,0,21.213l-67.686,67.686v-42.415l46.484-46.484
	C308.205,248.433,317.702,248.433,323.56,254.281z"/>
<path style="fill:#98981A;" d="M354.969,98.975v68.946c0,8.287-6.708,14.995-14.995,14.995c-8.277,0-14.995-6.708-14.995-14.995
	V98.975c0-38.037-30.939-68.986-68.976-68.986h-0.13V0h0.13C310.575,0,354.969,44.404,354.969,98.975z"/>
<g>
</g>
<g>
</g>
<g>
</g>
<g>
</g>
<g>
</g>
<g>
</g>
<g>
</g>
<g>
</g>
<g>
</g>
<g>
</g>
<g>
</g>
<g>
</g>
<g>
</g>
<g>
</g>
<g>
</g>
</svg>
