<svg height="480pt" viewBox="0 0 480.00033 480" width="480pt" xmlns="http://www.w3.org/2000/svg"><path d="m256 384-88-40-96 24v-48l80-24h168v32l-40 16h-24l40 40zm0 0" fill="#eabe97"/><path d="m72 472h-64v-152h64zm0 0" fill="#0f71c7"/><path d="m472 328-64 72-104 48h-232v-80l96-24 88 40h48l72-24 32-32c8.480469-8.503906 19.992188-13.28125 32-13.28125s23.519531 4.777344 32 13.28125zm0 0" fill="#eecfb1"/><path d="m48 8h392v224h-392zm0 0" fill="#6fb944"/><path d="m408 96v48c-30.929688 0-56 25.070312-56 56h-216c0-30.929688-25.070312-56-56-56v-48c30.929688 0 56-25.070312 56-56h216c0 30.929688 25.070312 56 56 56zm0 0" fill="#2d8e43"/><path d="m296 120c0 26.511719-21.492188 48-48 48s-48-21.488281-48-48c0-26.507812 21.492188-48 48-48s48 21.492188 48 48zm0 0" fill="#6fb944"/><g fill="#2d8e43"><path d="m408 208h-24v-16h16v-16h16v24c0 4.417969-3.582031 8-8 8zm0 0"/><path d="m416 64h-16v-16h-16v-16h24c4.417969 0 8 3.582031 8 8zm0 0"/><path d="m88 64h-16v-24c0-4.417969 3.582031-8 8-8h24v16h-16zm0 0"/><path d="m104 208h-24c-4.417969 0-8-3.582031-8-8v-24h16v16h16zm0 0"/></g><path d="m40 232c0 4.417969 3.582031 8 8 8h392c4.417969 0 8-3.582031 8-8v-224c0-4.417969-3.582031-8-8-8h-392c-4.417969 0-8 3.582031-8 8zm16-216h376v208h-376zm0 0"/><path d="m408 88c-26.5-.027344-47.972656-21.5-48-48 0-4.417969-3.582031-8-8-8h-216c-4.417969 0-8 3.582031-8 8-.027344 26.5-21.5 47.972656-48 48-4.417969 0-8 3.582031-8 8v48c0 4.417969 3.582031 8 8 8 26.5.027344 47.972656 21.5 48 48 0 4.417969 3.582031 8 8 8h216c4.417969 0 8-3.582031 8-8 .027344-26.5 21.5-47.972656 48-48 4.417969 0 8-3.582031 8-8v-48c0-4.417969-3.582031-8-8-8zm-8 48.503906c-28.980469 3.695313-51.804688 26.515625-55.503906 55.496094h-200.992188c-3.699218-28.980469-26.523437-51.800781-55.503906-55.496094v-33c28.980469-3.703125 51.800781-26.523437 55.503906-55.503906h200.992188c3.703125 28.980469 26.523437 51.800781 55.503906 55.503906zm0 0"/><path d="m248 64c-30.929688 0-56 25.070312-56 56s25.070312 56 56 56 56-25.070312 56-56c-.035156-30.914062-25.085938-55.964844-56-56zm0 96c-22.089844 0-40-17.910156-40-40s17.910156-40 40-40 40 17.910156 40 40c-.027344 22.082031-17.917969 39.972656-40 40zm0 0"/><path d="m400 192h-16v16h24c4.417969 0 8-3.582031 8-8v-24h-16zm0 0"/><path d="m408 32h-24v16h16v16h16v-24c0-4.417969-3.582031-8-8-8zm0 0"/><path d="m88 48h16v-16h-24c-4.417969 0-8 3.582031-8 8v24h16zm0 0"/><path d="m88 176h-16v24c0 4.417969 3.582031 8 8 8h24v-16h-16zm0 0"/><path d="m0 384h16v16h-16zm0 0"/><path d="m0 472c0 4.417969 3.582031 8 8 8h64c4.417969 0 8-3.582031 8-8v-16h224c1.15625.003906 2.300781-.25 3.351562-.734375l104-48c1.003907-.460937 1.902344-1.125 2.632813-1.953125l64-72c2.808594-3.167969 2.667969-7.976562-.328125-10.96875-20.808594-20.769531-54.503906-20.769531-75.3125 0l-30.664062 30.664062-68.976563 22.992188h-3.390625l-24-24h4.6875c1.019531 0 2.027344-.191406 2.976562-.566406l40-16c3.035157-1.21875 5.027344-4.160156 5.023438-7.433594v-32c0-4.417969-3.582031-8-8-8h-168c-.777344.003906-1.550781.117188-2.296875.335938l-78.878906 23.664062h-62.824219c-4.417969 0-8 3.582031-8 8v48h16v-40h48v136h-48v-16h-16zm304-80c.859375 0 1.714844-.140625 2.527344-.414062l72-24c1.175781-.394532 2.246094-1.054688 3.128906-1.929688l32-32c12.507812-12.496094 32.066406-14.5 46.847656-4.800781l-57.375 64.585937-100.890625 46.558594h-222.238281v-65.761719l87.199219-21.796875 85.488281 38.839844c1.039062.476562 2.167969.722656 3.3125.71875zm-150.824219-88h158.824219v18.585938l-33.535156 13.414062h-54.464844v16h28.6875l24 24h-18.953125l-86.398437-39.28125c-1.648438-.75-3.5-.917969-5.257813-.480469l-86.078125 21.523438v-31.808594zm0 0"/></svg>