<svg id="Capa_1" enable-background="new 0 0 512.002 512.002" height="512" viewBox="0 0 512.002 512.002" width="512" xmlns="http://www.w3.org/2000/svg"><g><g><g><g><g><g><path d="m182.886 54.117h299.735v207.403h-299.735z" fill="#b8ecbc"/></g></g></g></g><g><g><g><g><path d="m438.62 190.531v-65.426c-14.905 0-26.989-12.083-26.989-26.989h-157.757c0 14.905-12.083 26.989-26.989 26.989v65.426c14.905 0 26.989 12.083 26.989 26.989h157.757c.001-14.906 12.084-26.989 26.989-26.989z" fill="#d0f2d2"/></g></g></g></g><g><g><g><g><circle cx="332.753" cy="157.818" fill="#faf7f5" r="21.415"/></g></g></g></g><g><g><g><g><g><path d="m352.857 373.492h-93.73 93.73c9.308 0 17.817-5.458 21.98-14.099l-.714.4s-14.805-38.588-40.369-38.599h-70.004c-12.547 0-24.93-2.948-36.225-8.621l-7.219-3.622c-39.275-19.71-75.592-15.331-108.316 32.901h-40.626v91.107s67.809-3.001 77.356 0l155.052 22.01c13.295 1.887 26.836-.837 38.367-7.719l159.861-95.417c-11.607-20.027-46.678-33.686-66.489-22.577l-60.674 30.137" fill="#ffdcd5"/></g></g></g></g><g><g><g><g><path d="m10 319.139h61.364v138.746h-61.364z" fill="#b5b3ee"/></g></g></g></g></g></g><g><g><g><g><path d="m182.886 271.519h299.735c5.522 0 10-4.477 10-10v-207.402c0-5.523-4.478-10-10-10h-299.735c-5.522 0-10 4.477-10 10v207.403c0 5.522 4.477 9.999 10 9.999zm10-207.402h279.735v187.403h-279.735z"/><path d="m438.62 115.105c-9.367 0-16.988-7.621-16.988-16.988 0-5.523-4.478-10-10-10h-157.758c-5.522 0-10 4.477-10 10 0 9.367-7.621 16.988-16.988 16.988-5.522 0-10 4.477-10 10v65.426c0 5.523 4.478 10 10 10 9.367 0 16.988 7.621 16.988 16.989 0 5.523 4.478 10 10 10h157.758c5.522 0 10-4.477 10-10 0-9.368 7.621-16.989 16.988-16.989 5.522 0 10-4.477 10-10v-65.426c0-5.523-4.477-10-10-10zm-10 66.799c-12.37 3.479-22.137 13.246-25.615 25.616h-140.504c-3.479-12.37-13.245-22.137-25.615-25.616v-48.172c12.37-3.479 22.137-13.245 25.615-25.615h140.504c3.479 12.37 13.245 22.137 25.615 25.615z"/><path d="m332.753 126.403c-17.321 0-31.414 14.092-31.414 31.415s14.093 31.415 31.414 31.415c17.322 0 31.415-14.093 31.415-31.415s-14.093-31.415-31.415-31.415zm0 42.83c-6.294 0-11.414-5.121-11.414-11.415s5.12-11.415 11.414-11.415 11.415 5.121 11.415 11.415-5.121 11.415-11.415 11.415z"/><path d="m510.652 346.819c-6.733-11.618-19.989-21.849-35.46-27.369-16.449-5.869-32.59-5.52-44.336.953l-52.067 25.861c-7.112-13.277-22.254-35.061-45.035-35.071h-70.004c-10.918 0-21.893-2.613-31.741-7.559l-7.218-3.621c-23.18-11.633-43.981-14.828-63.597-9.774-20.163 5.197-38.003 18.829-54.414 41.612h-25.416v-12.712c0-5.523-4.478-10-10-10h-61.364c-5.522 0-10 4.477-10 10v138.746c0 5.523 4.478 10 10 10h61.364c5.522 0 10-4.477 10-10v-15.326c28.597-1.071 59.062-1.38 64.429-.038.497.152 1.006.266 1.521.339l155.053 22.01c3.191.453 6.398.677 9.601.677 12.359 0 24.616-3.336 35.296-9.71l159.861-95.416c4.699-2.806 6.271-8.867 3.527-13.602zm-449.288 101.066h-41.364v-118.746h41.364zm275.65-9.223c-9.534 5.691-20.835 7.968-31.836 6.406l-154.542-21.938c-10.398-2.375-46.365-1.467-69.271-.592v-70.687h30.626c3.314 0 6.414-1.643 8.275-4.386 27.138-40 56.609-49.121 95.556-29.577l7.216 3.62c12.616 6.335 26.694 9.684 40.713 9.684h69.999c13.08.006 24.297 17.768 29.199 27.989-2.666 2.729-6.251 4.31-10.091 4.31h-93.729c-5.522 0-10 4.477-10 10s4.478 10 10 10h93.729c12.034 0 22.937-6.25 29.232-16.536l57.869-28.744c.149-.074.297-.152.442-.234 11.832-6.632 34.018-.552 46.632 11.142z"/><path d="m223.56 369.661c-1.578-3.785-5.394-6.259-9.493-6.165-4.133.095-7.849 2.853-9.19 6.753-1.374 3.995-.006 8.608 3.367 11.172 3.311 2.518 7.921 2.731 11.439.51 4.072-2.571 5.694-7.834 3.877-12.27z"/></g></g></g></g></g></svg>